<svg id="Layer_1" data-name="Layer 1" xmlns="http://www.w3.org/2000/svg" xmlns:xlink="http://www.w3.org/1999/xlink" viewBox="0 0 458 390.7"><defs><style>.cls-1,.cls-15,.cls-16,.cls-21,.cls-28,.cls-32,.cls-34,.cls-8{fill:none;}.cls-2{opacity:0.15;isolation:isolate;fill:url(#linear-gradient);}.cls-3{fill:#1f364c;}.cls-4{fill:#0e71bb;}.cls-5{fill:#005b9f;}.cls-6{fill:#52acea;}.cls-7{fill:#21e2e2;}.cls-8{stroke:#ffbc98;}.cls-15,.cls-8{stroke-width:2px;}.cls-9{fill:#ffbc98;}.cls-10{fill:#80c9ff;}.cls-11{fill:#288ed9;}.cls-12{fill:#d6eeff;}.cls-13{fill:#fff;}.cls-14{fill:#137fcf;}.cls-15{stroke:#21e2e2;}.cls-16,.cls-34{stroke:#274d79;}.cls-16,.cls-21,.cls-28,.cls-32,.cls-34{stroke-miterlimit:10;}.cls-16{stroke-width:0.78px;}.cls-17{fill:#03aa99;}.cls-18{fill:#3b55ce;}.cls-19{fill:#000e5b;}.cls-20{fill:#3dc19a;}.cls-21{stroke:#3b55ce;stroke-width:1.57px;}.cls-21,.cls-28,.cls-32,.cls-34{stroke-linecap:round;}.cls-22{fill:#91dbac;}.cls-23{fill:#638be2;}.cls-24{fill:#e5f7ff;}.cls-25{fill:#1e4174;}.cls-26{fill:#ff9a8d;}.cls-27{fill:#8fc9c6;}.cls-28{stroke:#aaeeed;stroke-width:0.92px;}.cls-29{fill:#aaeeed;}.cls-30{fill:#ba5964;}.cls-31{fill:#001c45;}.cls-32{stroke:#001c45;stroke-width:1.71px;}.cls-33{fill:#3ed9c7;}.cls-34{stroke-width:2.1px;}.cls-35{fill:#85b8ed;}.cls-36{fill:#4e7eac;}.cls-37{clip-path:url(#clip-path);}</style><linearGradient id="linear-gradient" x1="1000.81" y1="1177.72" x2="1001.05" y2="1177.38" gradientTransform="matrix(788.25, 0, 0, -573.57, -788819.13, 675543.63)" gradientUnits="userSpaceOnUse"><stop offset="0" stop-color="#23cae0"/><stop offset="1" stop-color="#fff"/></linearGradient><clipPath id="clip-path"><path class="cls-1" d="M281.88,313.77s-39.7-13.7-54.4-19.1-36.2-16.1-44.8-7.1-1.4,22.5,19.1,29.9,78.3,9.5,78.3,9.5A25.93,25.93,0,0,0,281.88,313.77Z"/></clipPath></defs><title>error-404-01-01</title><path id="Path_4231" data-name="Path 4231" class="cls-2" d="M231.5,49.3c73.4,41.1,157.3,59.6,157.3,59.6s92.5,12.4,58.4,105-38.4,125.8-91.7,128.2c-50.5,1.2-78.9-17.1-128.9-14-44,3-74.2,20.4-147.6-5C-38.6,277.4-29.9-95.8,231.5,49.3Z"/><g id="Objects"><g id="Group_8549" data-name="Group 8549"><g id="Group_8451" data-name="Group 8451"><g id="Group_8660" data-name="Group 8660"><g id="Group_7180" data-name="Group 7180"><g id="Group_5583" data-name="Group 5583"><g id="Group_5582" data-name="Group 5582"><g id="Group_5581" data-name="Group 5581"><rect id="Rectangle_1565" data-name="Rectangle 1565" class="cls-3" x="100.68" y="103.07" width="121.9" height="9.46"/><path id="Path_3764" data-name="Path 3764" class="cls-4" d="M99.38,77.47h124.7c2.4,0,4.4,1.5,4.4,3.3v20.7c0,1.7-2,3.2-4.4,3.2H99.38c-2.4,0-4.4-1.5-4.4-3.2V80.77C95,79,97,77.47,99.38,77.47Z"/><path id="Rectangle_1631" data-name="Rectangle 1631" class="cls-5" d="M97.28,77.47h42.8v27.2H97.28a2.3,2.3,0,0,1-2.3-2.3h0V79.77a2.29,2.29,0,0,1,2.2-2.3Z"/></g></g></g></g><g id="Group_7183" data-name="Group 7183"><g id="Group_5584" data-name="Group 5584"><path id="Rectangle_1405" data-name="Rectangle 1405" class="cls-6" d="M179.08,87.17h0a1.4,1.4,0,0,1,1.4,1.4h0a1.5,1.5,0,0,1-1.4,1.5h0a1.49,1.49,0,0,1-1.4-1.5h0A1.4,1.4,0,0,1,179.08,87.17Z"/><path id="Rectangle_1424" data-name="Rectangle 1424" class="cls-7" d="M182.48,92.87h0a1.4,1.4,0,0,1,1.4,1.4h0a1.4,1.4,0,0,1-1.4,1.4h0a1.4,1.4,0,0,1-1.4-1.4h0A1.4,1.4,0,0,1,182.48,92.87Z"/><path id="Rectangle_1406" data-name="Rectangle 1406" class="cls-6" d="M184.68,87.17h0a1.4,1.4,0,0,1,1.4,1.4h0a1.5,1.5,0,0,1-1.4,1.5h0a1.49,1.49,0,0,1-1.4-1.5h0A1.49,1.49,0,0,1,184.68,87.17Z"/><path id="Rectangle_1423" data-name="Rectangle 1423" class="cls-6" d="M188.18,92.87h0a1.4,1.4,0,0,1,1.4,1.4h0a1.4,1.4,0,0,1-1.4,1.4h0a1.5,1.5,0,0,1-1.5-1.4h0A1.5,1.5,0,0,1,188.18,92.87Z"/><path id="Rectangle_1407" data-name="Rectangle 1407" class="cls-6" d="M190.38,87.17h0a1.4,1.4,0,0,1,1.4,1.4h0a1.5,1.5,0,0,1-1.4,1.5h0a1.49,1.49,0,0,1-1.4-1.5h0A1.4,1.4,0,0,1,190.38,87.17Z"/><path id="Rectangle_1422" data-name="Rectangle 1422" class="cls-6" d="M193.78,92.87h0a1.4,1.4,0,0,1,1.4,1.4h0a1.4,1.4,0,0,1-1.4,1.4h0a1.4,1.4,0,0,1-1.4-1.4h0A1.4,1.4,0,0,1,193.78,92.87Z"/><path id="Rectangle_1408" data-name="Rectangle 1408" class="cls-6" d="M196,87.17h0a1.4,1.4,0,0,1,1.4,1.4h0a1.5,1.5,0,0,1-1.4,1.5h0a1.49,1.49,0,0,1-1.4-1.5h0A1.49,1.49,0,0,1,196,87.17Z"/><path id="Rectangle_1421" data-name="Rectangle 1421" class="cls-7" d="M199.48,92.87h0a1.4,1.4,0,0,1,1.4,1.4h0a1.4,1.4,0,0,1-1.4,1.4h0a1.5,1.5,0,0,1-1.5-1.4h0A1.5,1.5,0,0,1,199.48,92.87Z"/><path id="Rectangle_1409" data-name="Rectangle 1409" class="cls-6" d="M201.68,87.17h0a1.4,1.4,0,0,1,1.4,1.4h0a1.5,1.5,0,0,1-1.4,1.5h0a1.49,1.49,0,0,1-1.4-1.5h0A1.4,1.4,0,0,1,201.68,87.17Z"/><path id="Rectangle_1420" data-name="Rectangle 1420" class="cls-6" d="M205.08,92.87h0a1.4,1.4,0,0,1,1.4,1.4h0a1.4,1.4,0,0,1-1.4,1.4h0a1.4,1.4,0,0,1-1.4-1.4h0A1.4,1.4,0,0,1,205.08,92.87Z"/></g></g><g id="Ellipse_1402" data-name="Ellipse 1402"><circle cx="214.98" cy="91.27" r="2.4"/><circle class="cls-8" cx="214.98" cy="91.27" r="1.9"/></g><path id="Rectangle_3126" data-name="Rectangle 3126" class="cls-6" d="M172.48,86.17h0a1.21,1.21,0,0,1,1.1,1v8a1.1,1.1,0,0,1-1.1,1.1h0a1,1,0,0,1-1-1v-8a1,1,0,0,1,.89-1.1Z"/><path id="Rectangle_3127" data-name="Rectangle 3127" class="cls-6" d="M168.28,86.17h0a1.11,1.11,0,0,1,1,1v8a1.11,1.11,0,0,1-1,1.1h0a1.1,1.1,0,0,1-1.1-1.1h0v-8a1,1,0,0,1,1-1Z"/><rect id="Rectangle_3128" data-name="Rectangle 3128" class="cls-5" x="146.88" y="86.17" width="17.1" height="4.28"/><rect id="Rectangle_3129" data-name="Rectangle 3129" class="cls-5" x="146.88" y="92.07" width="17.1" height="4.28"/><path id="Rectangle_3130" data-name="Rectangle 3130" class="cls-9" d="M171.48,88.27h2.1v7a1,1,0,0,1-1,1,.34.34,0,0,1-.1,0h0a1,1,0,0,1-1-1Z"/><path id="Rectangle_3131" data-name="Rectangle 3131" class="cls-7" d="M167.18,92.37h2.1v2.9a1,1,0,0,1-1,1,.34.34,0,0,1-.1,0h0a.89.89,0,0,1-1-.79.74.74,0,0,1,0-.21h0Z"/><rect id="Rectangle_3132" data-name="Rectangle 3132" class="cls-10" x="146.88" y="86.17" width="4.3" height="4.28"/><rect id="Rectangle_3133" data-name="Rectangle 3133" class="cls-10" x="146.88" y="92.07" width="4.3" height="4.28"/><rect id="Rectangle_3136" data-name="Rectangle 3136" class="cls-11" x="153.28" y="87.77" width="8.6" height="1.07"/><rect id="Rectangle_3137" data-name="Rectangle 3137" class="cls-11" x="153.28" y="93.57" width="8.6" height="1.07"/><g id="Group_7364" data-name="Group 7364"><g id="Group_7359" data-name="Group 7359"><path id="Rectangle_3070" data-name="Rectangle 3070" class="cls-9" d="M127.88,94.87h0a1.81,1.81,0,0,1,1.8,1.7h0a1.8,1.8,0,0,1-1.7,1.8h-.1a1.8,1.8,0,0,1-1.8-1.8h0A1.8,1.8,0,0,1,127.88,94.87Z"/><path id="Rectangle_3138" data-name="Rectangle 3138" class="cls-9" d="M128,84.57h0a.8.8,0,0,1,.8.8h0v7a.9.9,0,0,1-.8.8h0c-.5-.1-.8-.4-.8-.8v-7a.7.7,0,0,1,.58-.8Z"/></g><g id="Group_7360" data-name="Group 7360"><path id="Rectangle_1442" data-name="Rectangle 1442" class="cls-12" d="M122.58,94.87h0a1.8,1.8,0,0,1,1.7,1.7h0v.2a1.71,1.71,0,0,1-1.6,1.8h-.1a1.8,1.8,0,0,1-1.8-1.8h0a1.79,1.79,0,0,1,1.7-1.8Z"/><path id="Rectangle_3139" data-name="Rectangle 3139" class="cls-13" d="M122.68,87.77h0a.9.9,0,0,1,.8.8v3.8a.81.81,0,0,1-.8.7h0a.89.89,0,0,1-.9-.7v-3.8A.9.9,0,0,1,122.68,87.77Z"/></g><g id="Group_7361" data-name="Group 7361"><path id="Rectangle_1425" data-name="Rectangle 1425" class="cls-11" d="M117.18,94.87h0a1.81,1.81,0,0,1,1.8,1.7v.2a1.8,1.8,0,0,1-1.7,1.8h-.1a1.8,1.8,0,0,1-1.8-1.8h0a1.8,1.8,0,0,1,1.8-1.8h0Z"/><path id="Rectangle_3140" data-name="Rectangle 3140" class="cls-14" d="M117.28,83.27h0c.5.1.8.4.8.8h0v8.3a.71.71,0,0,1-.7.71h-.1a.8.8,0,0,1-.8-.7v-8.3C116.48,83.67,116.88,83.37,117.28,83.27Z"/></g><g id="Group_7362" data-name="Group 7362"><path id="Rectangle_1442-2" data-name="Rectangle 1442-2" class="cls-7" d="M111.88,94.87h0a1.8,1.8,0,0,1,1.7,1.7h0v.2a1.71,1.71,0,0,1-1.6,1.8h-.1a1.8,1.8,0,0,1-1.8-1.8h0a1.8,1.8,0,0,1,1.8-1.8h0Z"/><path id="Rectangle_3141" data-name="Rectangle 3141" class="cls-7" d="M112,85.37h0a.9.9,0,0,1,.8.8v6.2a.81.81,0,0,1-.8.7h0a.7.7,0,0,1-.8-.59V86.17a.8.8,0,0,1,.8-.8Z"/></g><g id="Group_7363" data-name="Group 7363"><path id="Rectangle_1425-2" data-name="Rectangle 1425-2" class="cls-7" d="M106.48,94.87h0a1.7,1.7,0,0,1,1.7,1.7h.1v.2a1.8,1.8,0,0,1-1.7,1.8h-.1a1.8,1.8,0,0,1-1.8-1.8h0a1.8,1.8,0,0,1,1.8-1.8h0Z"/><path id="Rectangle_3142" data-name="Rectangle 3142" class="cls-7" d="M106.58,88.87h0a.7.7,0,0,1,.8.58.81.81,0,0,1,0,.22h0v2.7a.71.71,0,0,1-.7.71h-.1a.8.8,0,0,1-.8-.7v-2.7a.8.8,0,0,1,.8-.8Z"/></g></g><g id="Ellipse_1403" data-name="Ellipse 1403"><circle class="cls-15" cx="214.98" cy="91.27" r="4.5"/></g></g><g id="Group_8545" data-name="Group 8545"><g id="Group_7180-2" data-name="Group 7180-2"><g id="Group_5583-2" data-name="Group 5583-2"><g id="Group_5582-2" data-name="Group 5582-2"><g id="Group_5581-2" data-name="Group 5581-2"><rect id="Rectangle_1565-2" data-name="Rectangle 1565-2" class="cls-3" x="100.68" y="136.27" width="121.9" height="9.46"/><path id="Path_3764-2" data-name="Path 3764-2" class="cls-4" d="M99.38,110.77h124.7c2.4,0,4.4,1.4,4.4,3.2v20.7c0,1.7-2,3.2-4.4,3.2H99.38c-2.4,0-4.4-1.5-4.4-3.2V114C95,112.17,97,110.77,99.38,110.77Z"/><path id="Rectangle_1631-2" data-name="Rectangle 1631-2" class="cls-5" d="M97.28,110.77h42.8v27.1H97.28a2.3,2.3,0,0,1-2.3-2.3h0V113a2.1,2.1,0,0,1,2-2.2h.31Z"/></g></g></g></g><g id="Group_7183-2" data-name="Group 7183-2"><g id="Group_5584-2" data-name="Group 5584-2"><path id="Rectangle_1405-2" data-name="Rectangle 1405-2" class="cls-6" d="M179.08,120.37h0a1.4,1.4,0,0,1,1.4,1.4h0a1.5,1.5,0,0,1-1.4,1.5h0a1.49,1.49,0,0,1-1.4-1.5h0A1.4,1.4,0,0,1,179.08,120.37Z"/><path id="Rectangle_1424-2" data-name="Rectangle 1424-2" class="cls-7" d="M182.48,126.07h0a1.4,1.4,0,0,1,1.4,1.4h0a1.4,1.4,0,0,1-1.4,1.4h0a1.4,1.4,0,0,1-1.4-1.4h0A1.4,1.4,0,0,1,182.48,126.07Z"/><path id="Rectangle_1406-2" data-name="Rectangle 1406-2" class="cls-6" d="M184.68,120.37h0a1.4,1.4,0,0,1,1.4,1.4h0a1.5,1.5,0,0,1-1.4,1.5h0a1.49,1.49,0,0,1-1.4-1.5h0A1.4,1.4,0,0,1,184.68,120.37Z"/><path id="Rectangle_1423-2" data-name="Rectangle 1423-2" class="cls-6" d="M188.18,126.07h0a1.4,1.4,0,0,1,1.4,1.4h0a1.4,1.4,0,0,1-1.4,1.4h0a1.5,1.5,0,0,1-1.5-1.4h0A1.5,1.5,0,0,1,188.18,126.07Z"/><path id="Rectangle_1407-2" data-name="Rectangle 1407-2" class="cls-6" d="M190.38,120.37h0a1.4,1.4,0,0,1,1.4,1.4h0a1.5,1.5,0,0,1-1.4,1.5h0a1.49,1.49,0,0,1-1.4-1.5h0A1.4,1.4,0,0,1,190.38,120.37Z"/><path id="Rectangle_1422-2" data-name="Rectangle 1422-2" class="cls-6" d="M193.78,126.07h0a1.4,1.4,0,0,1,1.4,1.4h0a1.4,1.4,0,0,1-1.4,1.4h0a1.4,1.4,0,0,1-1.4-1.4h0A1.4,1.4,0,0,1,193.78,126.07Z"/><path id="Rectangle_1408-2" data-name="Rectangle 1408-2" class="cls-6" d="M196,120.37h0a1.51,1.51,0,0,1,1.5,1.4h0a1.5,1.5,0,0,1-1.4,1.5h0a1.5,1.5,0,0,1-1.5-1.5h0A1.49,1.49,0,0,1,196,120.37Z"/><path id="Rectangle_1421-2" data-name="Rectangle 1421-2" class="cls-7" d="M199.48,126.07h0a1.4,1.4,0,0,1,1.4,1.4h0a1.4,1.4,0,0,1-1.4,1.4h0a1.5,1.5,0,0,1-1.5-1.4h0A1.5,1.5,0,0,1,199.48,126.07Z"/><path id="Rectangle_1409-2" data-name="Rectangle 1409-2" class="cls-6" d="M201.68,120.37h0a1.4,1.4,0,0,1,1.4,1.4h0a1.5,1.5,0,0,1-1.4,1.5h0a1.49,1.49,0,0,1-1.4-1.5h0A1.4,1.4,0,0,1,201.68,120.37Z"/><path id="Rectangle_1420-2" data-name="Rectangle 1420-2" class="cls-6" d="M205.08,126.07h0a1.4,1.4,0,0,1,1.4,1.4h0a1.4,1.4,0,0,1-1.4,1.4h0a1.4,1.4,0,0,1-1.4-1.4h0A1.4,1.4,0,0,1,205.08,126.07Z"/></g></g><g id="Ellipse_1402-2" data-name="Ellipse 1402-2"><circle cx="214.98" cy="124.47" r="2.4"/><circle class="cls-8" cx="214.98" cy="124.47" r="1.9"/></g><path id="Rectangle_3126-2" data-name="Rectangle 3126-2" class="cls-6" d="M172.48,119.37h0a1.21,1.21,0,0,1,1.1,1v8a1.1,1.1,0,0,1-1.1,1.1h0a1,1,0,0,1-1-1v-8a1,1,0,0,1,.89-1.1Z"/><path id="Rectangle_3127-2" data-name="Rectangle 3127-2" class="cls-6" d="M168.28,119.37h0a1.11,1.11,0,0,1,1,1v8a1.11,1.11,0,0,1-1,1.1h0a1.1,1.1,0,0,1-1.1-1.1h0v-8a1,1,0,0,1,1-1Z"/><rect id="Rectangle_3128-2" data-name="Rectangle 3128-2" class="cls-5" x="146.88" y="119.37" width="17.1" height="4.28"/><rect id="Rectangle_3129-2" data-name="Rectangle 3129-2" class="cls-5" x="146.88" y="125.27" width="17.1" height="4.28"/><path id="Rectangle_3130-2" data-name="Rectangle 3130-2" class="cls-9" d="M171.48,121.47h2.1v7a1,1,0,0,1-1,1h-.1a1,1,0,0,1-1-1Z"/><path id="Rectangle_3131-2" data-name="Rectangle 3131-2" class="cls-7" d="M167.18,125.57h2.1v2.9a1.11,1.11,0,0,1-1.1,1h0a1,1,0,0,1-1-1h0Z"/><rect id="Rectangle_3132-2" data-name="Rectangle 3132-2" class="cls-10" x="146.88" y="119.37" width="4.3" height="4.28"/><rect id="Rectangle_3133-2" data-name="Rectangle 3133-2" class="cls-10" x="146.88" y="125.27" width="4.3" height="4.28"/><rect id="Rectangle_3136-2" data-name="Rectangle 3136-2" class="cls-11" x="153.28" y="120.97" width="8.6" height="1.07"/><rect id="Rectangle_3137-2" data-name="Rectangle 3137-2" class="cls-11" x="153.28" y="126.77" width="8.6" height="1.07"/><g id="Group_7364-2" data-name="Group 7364-2"><g id="Group_7359-2" data-name="Group 7359-2"><path id="Rectangle_3070-2" data-name="Rectangle 3070-2" class="cls-9" d="M127.88,128.07h0a1.81,1.81,0,0,1,1.8,1.7h0a1.91,1.91,0,0,1-1.7,1.8h-.1a1.8,1.8,0,0,1-1.8-1.8h0A1.8,1.8,0,0,1,127.88,128.07Z"/><path id="Rectangle_3138-2" data-name="Rectangle 3138-2" class="cls-9" d="M128,117.77h0a.8.8,0,0,1,.8.8h0v7a.9.9,0,0,1-.8.8h0a.8.8,0,0,1-.8-.8h0v-7a.8.8,0,0,1,.8-.8Z"/></g><g id="Group_7360-2" data-name="Group 7360-2"><path id="Rectangle_1442-3" data-name="Rectangle 1442-3" class="cls-12" d="M122.58,128.07h0a1.7,1.7,0,0,1,1.7,1.7v.2a1.8,1.8,0,0,1-1.7,1.8h0a1.8,1.8,0,0,1-1.8-1.8h0a1.8,1.8,0,0,1,1.69-1.9Z"/><path id="Rectangle_3139-2" data-name="Rectangle 3139-2" class="cls-13" d="M122.68,121h0a.81.81,0,0,1,.8.7h0v3.8c0,.4-.4.7-.8.8h0a.89.89,0,0,1-.8-.8v-3.7a.8.8,0,0,1,.8-.8Z"/></g><g id="Group_7361-2" data-name="Group 7361-2"><path id="Rectangle_1425-3" data-name="Rectangle 1425-3" class="cls-11" d="M117.18,128.07h0a1.69,1.69,0,0,1,1.79,1.6.34.34,0,0,1,0,.1v.2a1.91,1.91,0,0,1-1.7,1.8h-.1a1.8,1.8,0,0,1-1.8-1.8h0a1.8,1.8,0,0,1,1.69-1.9Z"/><path id="Rectangle_3140-2" data-name="Rectangle 3140-2" class="cls-14" d="M117.28,116.57h0a.7.7,0,0,1,.79.59s0,.07,0,.11h0v8.3a.71.71,0,0,1-.7.71h-.1a.8.8,0,0,1-.8-.7v-8.3a.7.7,0,0,1,.69-.71Z"/></g><g id="Group_7362-2" data-name="Group 7362-2"><path id="Rectangle_1442-4" data-name="Rectangle 1442-4" class="cls-7" d="M111.88,128.07h0a1.7,1.7,0,0,1,1.7,1.7v.2a1.8,1.8,0,0,1-1.7,1.8h0a1.8,1.8,0,0,1-1.8-1.8h0a1.8,1.8,0,0,1,1.69-1.9Z"/><path id="Rectangle_3141-2" data-name="Rectangle 3141-2" class="cls-7" d="M112,118.57h0a.9.9,0,0,1,.8.8v6.2a.81.81,0,0,1-.8.7h0a.7.7,0,0,1-.8-.59v-6.31C111.08,119,111.48,118.57,112,118.57Z"/></g><g id="Group_7363-2" data-name="Group 7363-2"><path id="Rectangle_1425-4" data-name="Rectangle 1425-4" class="cls-7" d="M106.48,128.07h0a1.69,1.69,0,0,1,1.79,1.6.34.34,0,0,1,0,.1h0v.2a1.8,1.8,0,0,1-1.7,1.8h-.1a1.8,1.8,0,0,1-1.8-1.8h0a1.8,1.8,0,0,1,1.69-1.9Z"/><path id="Rectangle_3142-2" data-name="Rectangle 3142-2" class="cls-7" d="M106.58,122.07h0a.7.7,0,0,1,.79.59s0,.07,0,.11h0v2.7a.71.71,0,0,1-.59.8.74.74,0,0,1-.21,0h0a.8.8,0,0,1-.8-.8h0v-2.7A.8.8,0,0,1,106.58,122.07Z"/></g></g><g id="Ellipse_1403-2" data-name="Ellipse 1403-2"><circle class="cls-15" cx="214.98" cy="124.47" r="4.5"/></g></g><g id="Group_8454" data-name="Group 8454"><g id="Group_7180-3" data-name="Group 7180-3"><g id="Group_5583-3" data-name="Group 5583-3"><g id="Group_5582-3" data-name="Group 5582-3"><g id="Group_5581-3" data-name="Group 5581-3"><rect id="Rectangle_1565-3" data-name="Rectangle 1565-3" class="cls-3" x="100.68" y="169.77" width="121.9" height="9.46"/><path id="Path_3764-3" data-name="Path 3764-3" class="cls-4" d="M99.38,144.17h124.7c2.4,0,4.4,1.4,4.4,3.2v20.7c0,1.8-2,3.2-4.4,3.2H99.38c-2.4,0-4.4-1.4-4.4-3.2v-20.7C95,145.57,97,144.17,99.38,144.17Z"/><path id="Rectangle_1631-3" data-name="Rectangle 1631-3" class="cls-5" d="M97.28,144.17h42.8v27.1H97.28a2.19,2.19,0,0,1-2.3-2.1v-22.8a2.19,2.19,0,0,1,2.19-2.2Z"/></g></g></g></g><g id="Group_7183-3" data-name="Group 7183-3"><g id="Group_5584-3" data-name="Group 5584-3"><path id="Rectangle_1405-3" data-name="Rectangle 1405-3" class="cls-6" d="M179.08,153.87h0a1.4,1.4,0,0,1,1.4,1.4h0a1.4,1.4,0,0,1-1.4,1.4h0a1.4,1.4,0,0,1-1.4-1.4h0A1.4,1.4,0,0,1,179.08,153.87Z"/><path id="Rectangle_1424-3" data-name="Rectangle 1424-3" class="cls-7" d="M182.48,159.57h0a1.4,1.4,0,0,1,1.4,1.4h0a1.4,1.4,0,0,1-1.4,1.4h0a1.4,1.4,0,0,1-1.4-1.4h0A1.4,1.4,0,0,1,182.48,159.57Z"/><path id="Rectangle_1406-3" data-name="Rectangle 1406-3" class="cls-6" d="M184.68,153.87h0a1.4,1.4,0,0,1,1.4,1.4h0a1.4,1.4,0,0,1-1.4,1.4h0a1.4,1.4,0,0,1-1.4-1.4h0A1.4,1.4,0,0,1,184.68,153.87Z"/><path id="Rectangle_1423-3" data-name="Rectangle 1423-3" class="cls-6" d="M188.18,159.57h0a1.4,1.4,0,0,1,1.4,1.4h0a1.4,1.4,0,0,1-1.4,1.4h0a1.5,1.5,0,0,1-1.5-1.4h0A1.5,1.5,0,0,1,188.18,159.57Z"/><path id="Rectangle_1407-3" data-name="Rectangle 1407-3" class="cls-6" d="M190.38,153.87h0a1.4,1.4,0,0,1,1.4,1.4h0a1.4,1.4,0,0,1-1.4,1.4h0a1.4,1.4,0,0,1-1.4-1.4h0A1.4,1.4,0,0,1,190.38,153.87Z"/><path id="Rectangle_1422-3" data-name="Rectangle 1422-3" class="cls-6" d="M193.78,159.57h0a1.4,1.4,0,0,1,1.4,1.4h0a1.4,1.4,0,0,1-1.4,1.4h0a1.4,1.4,0,0,1-1.4-1.4h0A1.4,1.4,0,0,1,193.78,159.57Z"/><path id="Rectangle_1408-3" data-name="Rectangle 1408-3" class="cls-6" d="M196,153.87h0a1.51,1.51,0,0,1,1.5,1.4h0a1.4,1.4,0,0,1-1.4,1.4h0a1.4,1.4,0,0,1-1.4-1.4h0A1.38,1.38,0,0,1,196,153.87Z"/><path id="Rectangle_1421-3" data-name="Rectangle 1421-3" class="cls-7" d="M199.48,159.57h0a1.4,1.4,0,0,1,1.4,1.4h0a1.4,1.4,0,0,1-1.4,1.4h0A1.5,1.5,0,0,1,198,161h0A1.5,1.5,0,0,1,199.48,159.57Z"/><path id="Rectangle_1409-3" data-name="Rectangle 1409-3" class="cls-6" d="M201.68,153.87h0a1.4,1.4,0,0,1,1.4,1.4h0a1.4,1.4,0,0,1-1.4,1.4h0a1.4,1.4,0,0,1-1.4-1.4h0A1.4,1.4,0,0,1,201.68,153.87Z"/><path id="Rectangle_1420-3" data-name="Rectangle 1420-3" class="cls-6" d="M205.08,159.57h0a1.4,1.4,0,0,1,1.4,1.4h0a1.4,1.4,0,0,1-1.4,1.4h0a1.4,1.4,0,0,1-1.4-1.4h0A1.4,1.4,0,0,1,205.08,159.57Z"/></g></g><g id="Ellipse_1402-3" data-name="Ellipse 1402-3"><circle cx="214.98" cy="157.87" r="2.4"/><circle class="cls-8" cx="214.98" cy="157.87" r="1.9"/></g><path id="Rectangle_3126-3" data-name="Rectangle 3126-3" class="cls-6" d="M172.48,152.77h0a1.21,1.21,0,0,1,1.1,1.1v8a1.21,1.21,0,0,1-1.1,1.1h0a1.1,1.1,0,0,1-1.1-1.1h0v-8a1.1,1.1,0,0,1,1.1-1.1Z"/><path id="Rectangle_3127-3" data-name="Rectangle 3127-3" class="cls-6" d="M168.28,152.77h0a1.11,1.11,0,0,1,1,1.1v8a1.11,1.11,0,0,1-1,1.1h0a1.1,1.1,0,0,1-1.1-1.1h0v-8a1,1,0,0,1,.89-1.1h.21Z"/><rect id="Rectangle_3128-3" data-name="Rectangle 3128-3" class="cls-5" x="146.88" y="152.77" width="17.1" height="4.28"/><rect id="Rectangle_3129-3" data-name="Rectangle 3129-3" class="cls-5" x="146.88" y="158.67" width="17.1" height="4.28"/><path id="Rectangle_3130-3" data-name="Rectangle 3130-3" class="cls-9" d="M171.48,155h2.1v7a1.11,1.11,0,0,1-1,1h0a1,1,0,0,1-1.1-.9V162h0Z"/><path id="Rectangle_3131-3" data-name="Rectangle 3131-3" class="cls-7" d="M167.18,159h2.1v3a1.11,1.11,0,0,1-1.1,1h0a1.09,1.09,0,0,1-1-1h0Z"/><rect id="Rectangle_3132-3" data-name="Rectangle 3132-3" class="cls-10" x="146.88" y="152.77" width="4.3" height="4.28"/><rect id="Rectangle_3133-3" data-name="Rectangle 3133-3" class="cls-10" x="146.88" y="158.67" width="4.3" height="4.28"/><rect id="Rectangle_3136-3" data-name="Rectangle 3136-3" class="cls-11" x="153.28" y="154.47" width="8.6" height="1.07"/><rect id="Rectangle_3137-3" data-name="Rectangle 3137-3" class="cls-11" x="153.28" y="160.27" width="8.6" height="1.07"/><g id="Group_7364-3" data-name="Group 7364-3"><g id="Group_7359-3" data-name="Group 7359-3"><path id="Rectangle_3070-3" data-name="Rectangle 3070-3" class="cls-9" d="M127.88,161.57h0a1.69,1.69,0,0,1,1.79,1.6.34.34,0,0,1,0,.1h0a1.81,1.81,0,0,1-1.8,1.8h0a1.89,1.89,0,0,1-1.8-1.7h0v-.2A1.79,1.79,0,0,1,127.88,161.57Z"/><path id="Rectangle_3138-3" data-name="Rectangle 3138-3" class="cls-9" d="M128,151.27h0a.8.8,0,0,1,.8.8h0V159a.9.9,0,0,1-.8.8h0a.8.8,0,0,1-.8-.8h0v-6.9a.7.7,0,0,1,.58-.8A.81.81,0,0,1,128,151.27Z"/></g><g id="Group_7360-3" data-name="Group 7360-3"><path id="Rectangle_1442-5" data-name="Rectangle 1442-5" class="cls-12" d="M122.58,161.57h0a1.6,1.6,0,0,1,1.7,1.49v.21h0v.2a1.8,1.8,0,0,1-1.7,1.7h0a1.7,1.7,0,0,1-1.8-1.6v-.1h0v-.2A1.8,1.8,0,0,1,122.58,161.57Z"/><path id="Rectangle_3139-3" data-name="Rectangle 3139-3" class="cls-13" d="M122.68,154.47h0a.8.8,0,0,1,.8.8h0V159a.9.9,0,0,1-.8.8h0a.9.9,0,0,1-.9-.8v-3.8A.89.89,0,0,1,122.68,154.47Z"/></g><g id="Group_7361-3" data-name="Group 7361-3"><path id="Rectangle_1425-5" data-name="Rectangle 1425-5" class="cls-11" d="M117.18,161.57h0a1.69,1.69,0,0,1,1.79,1.6.34.34,0,0,1,0,.1v.2a1.81,1.81,0,0,1-1.8,1.7h0a1.8,1.8,0,0,1-1.8-1.7h0v-.2A1.8,1.8,0,0,1,117.18,161.57Z"/><path id="Rectangle_3140-3" data-name="Rectangle 3140-3" class="cls-14" d="M117.28,150h0a.8.8,0,0,1,.8.8h0V159a.8.8,0,0,1-.8.8h0a.89.89,0,0,1-.8-.8v-8.2A.89.89,0,0,1,117.28,150Z"/></g><g id="Group_7362-3" data-name="Group 7362-3"><path id="Rectangle_1442-6" data-name="Rectangle 1442-6" class="cls-7" d="M111.88,161.57h0a1.6,1.6,0,0,1,1.7,1.49v.21h0v.2a1.8,1.8,0,0,1-1.7,1.7h0a1.7,1.7,0,0,1-1.8-1.6v-.1h0v-.2A1.8,1.8,0,0,1,111.88,161.57Z"/><path id="Rectangle_3141-3" data-name="Rectangle 3141-3" class="cls-7" d="M112,152.07h0a.7.7,0,0,1,.79.59s0,.07,0,.11V159a.9.9,0,0,1-.8.8h0a.8.8,0,0,1-.8-.8h0v-6.2a.7.7,0,0,1,.69-.71Z"/></g><g id="Group_7363-3" data-name="Group 7363-3"><path id="Rectangle_1425-6" data-name="Rectangle 1425-6" class="cls-7" d="M106.48,161.57h0a1.69,1.69,0,0,1,1.79,1.6.34.34,0,0,1,0,.1v.2a1.81,1.81,0,0,1-1.8,1.7h0a1.7,1.7,0,0,1-1.8-1.6v-.1h0v-.2A1.8,1.8,0,0,1,106.48,161.57Z"/><path id="Rectangle_3142-3" data-name="Rectangle 3142-3" class="cls-7" d="M106.58,155.47h0a.8.8,0,0,1,.8.8h0V159a.8.8,0,0,1-.8.8h0a.89.89,0,0,1-.8-.8v-2.7A.89.89,0,0,1,106.58,155.47Z"/></g></g><g id="Ellipse_1403-3" data-name="Ellipse 1403-3"><circle class="cls-15" cx="214.98" cy="157.87" r="4.5"/></g></g><g id="Group_7365" data-name="Group 7365"><g id="Group_7180-4" data-name="Group 7180-4"><g id="Group_5583-4" data-name="Group 5583-4"><g id="Group_5582-4" data-name="Group 5582-4"><g id="Group_5581-4" data-name="Group 5581-4"><rect id="Rectangle_1565-4" data-name="Rectangle 1565-4" class="cls-3" x="100.68" y="202.27" width="121.9" height="9.46"/><path id="Path_3764-4" data-name="Path 3764-4" class="cls-4" d="M99.38,176.67h124.7c2.4,0,4.4,1.4,4.4,3.2v20.7c0,1.8-2,3.3-4.4,3.3H99.38c-2.4,0-4.4-1.5-4.4-3.3v-20.7C95,178.07,97,176.67,99.38,176.67Z"/><path id="Rectangle_1631-4" data-name="Rectangle 1631-4" class="cls-5" d="M97.28,176.67h42.8v27.2H97.28a2.3,2.3,0,0,1-2.3-2.3h0v-22.7a2.19,2.19,0,0,1,2.19-2.2Z"/></g></g></g></g><g id="Group_7183-4" data-name="Group 7183-4"><g id="Group_5584-4" data-name="Group 5584-4"><path id="Rectangle_1405-4" data-name="Rectangle 1405-4" class="cls-6" d="M179.08,186.37h0a1.4,1.4,0,0,1,1.4,1.4h0a1.4,1.4,0,0,1-1.4,1.4h0a1.4,1.4,0,0,1-1.4-1.4h0A1.4,1.4,0,0,1,179.08,186.37Z"/><path id="Rectangle_1424-4" data-name="Rectangle 1424-4" class="cls-7" d="M182.48,192h0a1.5,1.5,0,0,1,1.4,1.5h0a1.4,1.4,0,0,1-1.4,1.4h0a1.4,1.4,0,0,1-1.4-1.4h0A1.49,1.49,0,0,1,182.48,192Z"/><path id="Rectangle_1406-4" data-name="Rectangle 1406-4" class="cls-6" d="M184.68,186.37h0a1.4,1.4,0,0,1,1.4,1.4h0a1.4,1.4,0,0,1-1.4,1.4h0a1.4,1.4,0,0,1-1.4-1.4h0A1.49,1.49,0,0,1,184.68,186.37Z"/><path id="Rectangle_1423-4" data-name="Rectangle 1423-4" class="cls-6" d="M188.18,192h0a1.5,1.5,0,0,1,1.4,1.5h0a1.51,1.51,0,0,1-1.4,1.4h0a1.5,1.5,0,0,1-1.5-1.4h0A1.5,1.5,0,0,1,188.18,192Z"/><path id="Rectangle_1407-4" data-name="Rectangle 1407-4" class="cls-6" d="M190.38,186.37h0a1.4,1.4,0,0,1,1.4,1.4h0a1.4,1.4,0,0,1-1.4,1.4h0a1.4,1.4,0,0,1-1.4-1.4h0A1.4,1.4,0,0,1,190.38,186.37Z"/><path id="Rectangle_1422-4" data-name="Rectangle 1422-4" class="cls-6" d="M193.78,192h0a1.5,1.5,0,0,1,1.4,1.5h0a1.4,1.4,0,0,1-1.4,1.4h0a1.4,1.4,0,0,1-1.4-1.4h0A1.49,1.49,0,0,1,193.78,192Z"/><path id="Rectangle_1408-4" data-name="Rectangle 1408-4" class="cls-6" d="M196,186.37h0a1.51,1.51,0,0,1,1.5,1.4h0a1.4,1.4,0,0,1-1.4,1.4h0a1.4,1.4,0,0,1-1.4-1.4h0A1.38,1.38,0,0,1,196,186.37Z"/><path id="Rectangle_1421-4" data-name="Rectangle 1421-4" class="cls-7" d="M199.48,192h0a1.5,1.5,0,0,1,1.4,1.5h0a1.4,1.4,0,0,1-1.4,1.4h0a1.59,1.59,0,0,1-1.5-1.4h0A1.6,1.6,0,0,1,199.48,192Z"/><path id="Rectangle_1409-4" data-name="Rectangle 1409-4" class="cls-6" d="M201.68,186.37h0a1.4,1.4,0,0,1,1.4,1.4h0a1.4,1.4,0,0,1-1.4,1.4h0a1.4,1.4,0,0,1-1.4-1.4h0A1.4,1.4,0,0,1,201.68,186.37Z"/><path id="Rectangle_1420-4" data-name="Rectangle 1420-4" class="cls-6" d="M205.08,192h0a1.5,1.5,0,0,1,1.4,1.5h0a1.4,1.4,0,0,1-1.4,1.4h0a1.4,1.4,0,0,1-1.4-1.4h0A1.49,1.49,0,0,1,205.08,192Z"/></g></g><g id="Ellipse_1402-4" data-name="Ellipse 1402-4"><circle cx="214.98" cy="190.37" r="2.4"/><circle class="cls-8" cx="214.98" cy="190.37" r="1.9"/></g><path id="Rectangle_3126-4" data-name="Rectangle 3126-4" class="cls-6" d="M172.48,185.37h0a1,1,0,0,1,1.09.89s0,.07,0,.11h0v8a1.1,1.1,0,0,1-1.1,1.1h0a1.09,1.09,0,0,1-1.1-.9h0v-8.1a1.09,1.09,0,0,1,1-1.1Z"/><path id="Rectangle_3127-4" data-name="Rectangle 3127-4" class="cls-6" d="M168.28,185.37h0a.9.9,0,0,1,1,.79v.21h0v8a1.11,1.11,0,0,1-1,1.1h0a1,1,0,0,1-1.1-.89h0v-8.1a1,1,0,0,1,.89-1.1h.21Z"/><rect id="Rectangle_3128-4" data-name="Rectangle 3128-4" class="cls-5" x="146.88" y="185.37" width="17.1" height="4.28"/><rect id="Rectangle_3129-4" data-name="Rectangle 3129-4" class="cls-5" x="146.88" y="191.17" width="17.1" height="4.28"/><path id="Rectangle_3130-4" data-name="Rectangle 3130-4" class="cls-9" d="M171.48,187.47h2.1v6.9a1,1,0,0,1-.9,1.09h-.1a1,1,0,0,1-1.1-.89h0v-7.1Z"/><path id="Rectangle_3131-4" data-name="Rectangle 3131-4" class="cls-7" d="M167.18,191.47h2.1v2.9a1.11,1.11,0,0,1-1,1.1h-.1a1,1,0,0,1-1-.9h0v-3.1Z"/><rect id="Rectangle_3132-4" data-name="Rectangle 3132-4" class="cls-10" x="146.88" y="185.37" width="4.3" height="4.28"/><rect id="Rectangle_3133-4" data-name="Rectangle 3133-4" class="cls-10" x="146.88" y="191.17" width="4.3" height="4.28"/><rect id="Rectangle_3136-4" data-name="Rectangle 3136-4" class="cls-11" x="153.28" y="186.87" width="8.6" height="1.07"/><rect id="Rectangle_3137-4" data-name="Rectangle 3137-4" class="cls-11" x="153.28" y="192.77" width="8.6" height="1.07"/><g id="Group_7364-4" data-name="Group 7364-4"><g id="Group_7359-4" data-name="Group 7359-4"><path id="Rectangle_3070-4" data-name="Rectangle 3070-4" class="cls-11" d="M127.88,194.07h0a1.69,1.69,0,0,1,1.79,1.6.34.34,0,0,1,0,.1h0v.2a1.81,1.81,0,0,1-1.8,1.7h0a1.7,1.7,0,0,1-1.8-1.6v-.3a1.7,1.7,0,0,1,1.7-1.7Z"/><path id="Rectangle_3138-4" data-name="Rectangle 3138-4" class="cls-14" d="M128,183.67h0a.9.9,0,0,1,.8.8v7a.8.8,0,0,1-.8.8h0a.8.8,0,0,1-.8-.8h0v-7a.8.8,0,0,1,.8-.8Z"/></g><g id="Group_7360-4" data-name="Group 7360-4"><path id="Rectangle_1442-7" data-name="Rectangle 1442-7" class="cls-12" d="M122.58,194.07h0a1.7,1.7,0,0,1,1.7,1.7h0v.2a1.8,1.8,0,0,1-1.7,1.7h0a1.6,1.6,0,0,1-1.79-1.39,1.48,1.48,0,0,1,0-.21h0v-.3a1.6,1.6,0,0,1,1.49-1.7h.31Z"/><path id="Rectangle_3139-4" data-name="Rectangle 3139-4" class="cls-13" d="M122.68,186.87h0a1.12,1.12,0,0,1,.8.8v3.8a.9.9,0,0,1-.8.8h0a1,1,0,0,1-.9-.8v-3.8A1,1,0,0,1,122.68,186.87Z"/></g><g id="Group_7361-4" data-name="Group 7361-4"><path id="Rectangle_1425-7" data-name="Rectangle 1425-7" class="cls-11" d="M117.18,194.07h0a1.69,1.69,0,0,1,1.79,1.6.34.34,0,0,1,0,.1h0v.2a1.81,1.81,0,0,1-1.8,1.7h0a1.8,1.8,0,0,1-1.8-1.7v-.2a1.68,1.68,0,0,1,1.69-1.7Z"/><path id="Rectangle_3140-4" data-name="Rectangle 3140-4" class="cls-14" d="M117.28,182.47h0a.8.8,0,0,1,.8.8h0v8.2a.8.8,0,0,1-.8.8h0a.89.89,0,0,1-.8-.8v-8.2A.89.89,0,0,1,117.28,182.47Z"/></g><g id="Group_7362-4" data-name="Group 7362-4"><path id="Rectangle_1442-8" data-name="Rectangle 1442-8" class="cls-9" d="M111.88,194.07h0a1.7,1.7,0,0,1,1.7,1.7h0v.2a1.7,1.7,0,0,1-1.7,1.7h0a1.6,1.6,0,0,1-1.79-1.39,1.48,1.48,0,0,1,0-.21h0v-.3a1.7,1.7,0,0,1,1.7-1.7Z"/><path id="Rectangle_3141-4" data-name="Rectangle 3141-4" class="cls-9" d="M112,184.57h0a.8.8,0,0,1,.8.8h0v6.1a.9.9,0,0,1-.8.8h0a.8.8,0,0,1-.8-.8h0v-6.1a.7.7,0,0,1,.58-.8Z"/></g><g id="Group_7363-4" data-name="Group 7363-4"><path id="Rectangle_1425-8" data-name="Rectangle 1425-8" class="cls-7" d="M106.48,194.07h0a1.6,1.6,0,0,1,1.7,1.49v.21h.1v.2a1.81,1.81,0,0,1-1.8,1.7h0a1.7,1.7,0,0,1-1.8-1.6v-.3a1.7,1.7,0,0,1,1.7-1.7Z"/><path id="Rectangle_3142-4" data-name="Rectangle 3142-4" class="cls-7" d="M106.58,188h0a.8.8,0,0,1,.8.8h0v2.7a.8.8,0,0,1-.8.8h0a.89.89,0,0,1-.8-.8v-2.7A.89.89,0,0,1,106.58,188Z"/></g></g><g id="Ellipse_1403-4" data-name="Ellipse 1403-4"><circle class="cls-15" cx="214.98" cy="190.37" r="4.5"/></g></g><g id="Group_7365-2" data-name="Group 7365-2"><g id="Group_7180-5" data-name="Group 7180-5"><g id="Group_5583-5" data-name="Group 5583-5"><g id="Group_5582-5" data-name="Group 5582-5"><g id="Group_5581-5" data-name="Group 5581-5"><rect id="Rectangle_1565-5" data-name="Rectangle 1565-5" class="cls-3" x="100.68" y="234.57" width="121.9" height="9.46"/><path id="Path_3764-5" data-name="Path 3764-5" class="cls-4" d="M99.38,209h124.7c2.4,0,4.4,1.4,4.4,3.2v20.7c0,1.8-2,3.3-4.4,3.3H99.38c-2.4,0-4.4-1.5-4.4-3.3v-20.7C95,210.37,97,209,99.38,209Z"/><path id="Rectangle_1631-5" data-name="Rectangle 1631-5" class="cls-5" d="M97.28,209h42.8v27.1H97.28A2.19,2.19,0,0,1,95,234v-22.7a2.3,2.3,0,0,1,2.3-2.3Z"/></g></g></g></g><g id="Group_7183-5" data-name="Group 7183-5"><g id="Group_5584-5" data-name="Group 5584-5"><path id="Rectangle_1405-5" data-name="Rectangle 1405-5" class="cls-6" d="M179.08,218.67h0a1.5,1.5,0,0,1,1.4,1.5h0a1.4,1.4,0,0,1-1.4,1.4h0a1.4,1.4,0,0,1-1.4-1.4h0A1.49,1.49,0,0,1,179.08,218.67Z"/><path id="Rectangle_1424-5" data-name="Rectangle 1424-5" class="cls-7" d="M182.48,224.37h0a1.4,1.4,0,0,1,1.4,1.4h0a1.4,1.4,0,0,1-1.4,1.4h0a1.4,1.4,0,0,1-1.4-1.4h0A1.4,1.4,0,0,1,182.48,224.37Z"/><path id="Rectangle_1406-5" data-name="Rectangle 1406-5" class="cls-6" d="M184.68,218.67h0a1.5,1.5,0,0,1,1.4,1.5h0a1.4,1.4,0,0,1-1.4,1.4h0a1.49,1.49,0,0,1-1.4-1.4h0A1.49,1.49,0,0,1,184.68,218.67Z"/><path id="Rectangle_1423-5" data-name="Rectangle 1423-5" class="cls-6" d="M188.18,224.37h0a1.4,1.4,0,0,1,1.4,1.4h0a1.4,1.4,0,0,1-1.4,1.4h0a1.5,1.5,0,0,1-1.5-1.4h0A1.5,1.5,0,0,1,188.18,224.37Z"/><path id="Rectangle_1407-5" data-name="Rectangle 1407-5" class="cls-6" d="M190.38,218.67h0a1.5,1.5,0,0,1,1.4,1.5h0a1.4,1.4,0,0,1-1.4,1.4h0a1.4,1.4,0,0,1-1.4-1.4h0A1.49,1.49,0,0,1,190.38,218.67Z"/><path id="Rectangle_1422-5" data-name="Rectangle 1422-5" class="cls-6" d="M193.78,224.37h0a1.4,1.4,0,0,1,1.4,1.4h0a1.4,1.4,0,0,1-1.4,1.4h0a1.4,1.4,0,0,1-1.4-1.4h0A1.4,1.4,0,0,1,193.78,224.37Z"/><path id="Rectangle_1408-5" data-name="Rectangle 1408-5" class="cls-6" d="M196,218.67h0a1.5,1.5,0,0,1,1.4,1.5h0a1.4,1.4,0,0,1-1.4,1.4h0a1.49,1.49,0,0,1-1.4-1.4h0A1.49,1.49,0,0,1,196,218.67Z"/><path id="Rectangle_1421-5" data-name="Rectangle 1421-5" class="cls-7" d="M199.48,224.37h0a1.4,1.4,0,0,1,1.4,1.4h0a1.4,1.4,0,0,1-1.4,1.4h0a1.5,1.5,0,0,1-1.5-1.4h0A1.5,1.5,0,0,1,199.48,224.37Z"/><path id="Rectangle_1409-5" data-name="Rectangle 1409-5" class="cls-6" d="M201.68,218.67h0a1.5,1.5,0,0,1,1.4,1.5h0a1.4,1.4,0,0,1-1.4,1.4h0a1.4,1.4,0,0,1-1.4-1.4h0A1.49,1.49,0,0,1,201.68,218.67Z"/><path id="Rectangle_1420-5" data-name="Rectangle 1420-5" class="cls-6" d="M205.08,224.37h0a1.4,1.4,0,0,1,1.4,1.4h0a1.4,1.4,0,0,1-1.4,1.4h0a1.4,1.4,0,0,1-1.4-1.4h0A1.4,1.4,0,0,1,205.08,224.37Z"/></g></g><g id="Ellipse_1402-5" data-name="Ellipse 1402-5"><circle cx="214.98" cy="222.77" r="2.4"/><circle class="cls-8" cx="214.98" cy="222.77" r="1.9"/></g><path id="Rectangle_3126-5" data-name="Rectangle 3126-5" class="cls-6" d="M172.48,217.57h0a1.3,1.3,0,0,1,1.1,1.1v8.1a1.11,1.11,0,0,1-1.1,1h0a1.09,1.09,0,0,1-1-1v-8.1A1.19,1.19,0,0,1,172.48,217.57Z"/><path id="Rectangle_3127-5" data-name="Rectangle 3127-5" class="cls-6" d="M168.28,217.57h0a1.21,1.21,0,0,1,1,1.1v8.1a1.21,1.21,0,0,1-1,1.1h0a1.1,1.1,0,0,1-1.1-1.1h0v-8.1a1.19,1.19,0,0,1,1-1.1Z"/><rect id="Rectangle_3128-5" data-name="Rectangle 3128-5" class="cls-5" x="146.88" y="217.57" width="17.1" height="4.28"/><rect id="Rectangle_3129-5" data-name="Rectangle 3129-5" class="cls-5" x="146.88" y="223.57" width="17.1" height="4.28"/><path id="Rectangle_3130-5" data-name="Rectangle 3130-5" class="cls-9" d="M171.48,219.77h2.1v7a1,1,0,0,1-1,1h-.1a1.09,1.09,0,0,1-1-1Z"/><path id="Rectangle_3131-5" data-name="Rectangle 3131-5" class="cls-7" d="M167.18,223.87h2.1v2.9a1.21,1.21,0,0,1-1.1,1.1h0a1.09,1.09,0,0,1-1-1.1h0Z"/><rect id="Rectangle_3132-5" data-name="Rectangle 3132-5" class="cls-10" x="146.88" y="217.57" width="4.3" height="4.28"/><rect id="Rectangle_3133-5" data-name="Rectangle 3133-5" class="cls-10" x="146.88" y="223.57" width="4.3" height="4.28"/><rect id="Rectangle_3136-5" data-name="Rectangle 3136-5" class="cls-11" x="153.28" y="219.27" width="8.6" height="1.07"/><rect id="Rectangle_3137-5" data-name="Rectangle 3137-5" class="cls-11" x="153.28" y="225.07" width="8.6" height="1.07"/><g id="Ellipse_1403-5" data-name="Ellipse 1403-5"><circle class="cls-15" cx="214.98" cy="222.77" r="4.5"/></g><g id="Group_7374" data-name="Group 7374"><g id="Group_7359-5" data-name="Group 7359-5"><path id="Rectangle_3070-5" data-name="Rectangle 3070-5" class="cls-11" d="M127.88,226.87h0a1.81,1.81,0,0,1,1.8,1.7h0a1.9,1.9,0,0,1-1.8,1.8h0a1.89,1.89,0,0,1-1.8-1.7v-.2a1.8,1.8,0,0,1,1.8-1.8h0Z"/><path id="Rectangle_3138-5" data-name="Rectangle 3138-5" class="cls-14" d="M128,216.57h0a.8.8,0,0,1,.8.8h0v6.9a.9.9,0,0,1-.8.8h0a.8.8,0,0,1-.8-.8h0v-6.9a.7.7,0,0,1,.58-.8Z"/></g><g id="Group_7360-5" data-name="Group 7360-5"><path id="Rectangle_1442-9" data-name="Rectangle 1442-9" class="cls-12" d="M122.58,226.87h0a1.7,1.7,0,0,1,1.7,1.7h0v.2a1.8,1.8,0,0,1-1.7,1.8h0a1.8,1.8,0,0,1-1.8-1.7h0v-.2a1.79,1.79,0,0,1,1.7-1.8Z"/><path id="Rectangle_3139-5" data-name="Rectangle 3139-5" class="cls-13" d="M122.68,219.77h0a.9.9,0,0,1,.8.8v3.7a.9.9,0,0,1-.8.8h0a.81.81,0,0,1-.9-.69v-.11h0v-3.7A.9.9,0,0,1,122.68,219.77Z"/></g><g id="Group_7361-5" data-name="Group 7361-5"><path id="Rectangle_1425-9" data-name="Rectangle 1425-9" class="cls-11" d="M117.18,226.87h0a1.69,1.69,0,0,1,1.79,1.6.34.34,0,0,1,0,.1v.2a1.9,1.9,0,0,1-1.8,1.8h0a1.89,1.89,0,0,1-1.8-1.7v-.2a1.8,1.8,0,0,1,1.8-1.8Z"/><path id="Rectangle_3140-5" data-name="Rectangle 3140-5" class="cls-14" d="M117.28,215.27h0a.8.8,0,0,1,.8.8h0v8.2a.8.8,0,0,1-.8.8h0a.89.89,0,0,1-.8-.8v-8.2A.89.89,0,0,1,117.28,215.27Z"/></g><g id="Group_7362-5" data-name="Group 7362-5"><path id="Rectangle_1442-10" data-name="Rectangle 1442-10" class="cls-9" d="M111.88,226.87h0a1.7,1.7,0,0,1,1.7,1.7h0v.2a1.8,1.8,0,0,1-1.7,1.8h0a1.8,1.8,0,0,1-1.8-1.7h0v-.2a1.8,1.8,0,0,1,1.8-1.8Z"/><path id="Rectangle_3141-5" data-name="Rectangle 3141-5" class="cls-9" d="M112,217.37h0a.81.81,0,0,1,.8.7v6.2a.9.9,0,0,1-.8.8h0a.69.69,0,0,1-.8-.58.41.41,0,0,1,0-.22h0v-6.2a.7.7,0,0,1,.69-.71Z"/></g><g id="Group_7363-5" data-name="Group 7363-5"><path id="Rectangle_1425-10" data-name="Rectangle 1425-10" class="cls-7" d="M106.48,226.87h0a1.6,1.6,0,0,1,1.7,1.49v.21h.1v.2a1.81,1.81,0,0,1-1.8,1.8h0a1.8,1.8,0,0,1-1.8-1.7v-.2a1.8,1.8,0,0,1,1.8-1.8Z"/><path id="Rectangle_3142-5" data-name="Rectangle 3142-5" class="cls-7" d="M106.58,220.87h0a.7.7,0,0,1,.79.59s0,.07,0,.11v2.7a.8.8,0,0,1-.8.8h0a.89.89,0,0,1-.8-.8v-2.7a.7.7,0,0,1,.69-.71Z"/></g></g></g><g id="Group_7365-3" data-name="Group 7365-3"><g id="Group_7180-6" data-name="Group 7180-6"><g id="Group_5583-6" data-name="Group 5583-6"><g id="Group_5582-6" data-name="Group 5582-6"><g id="Group_5581-6" data-name="Group 5581-6"><rect id="Rectangle_1565-6" data-name="Rectangle 1565-6" class="cls-3" x="100.68" y="266.87" width="121.9" height="9.46"/><path id="Path_3764-6" data-name="Path 3764-6" class="cls-4" d="M99.38,241.27h124.7c2.4,0,4.4,1.5,4.4,3.3v20.7c0,1.7-2,3.2-4.4,3.2H99.38c-2.4,0-4.4-1.5-4.4-3.2v-20.7C95,242.77,97,241.27,99.38,241.27Z"/><path id="Rectangle_1631-6" data-name="Rectangle 1631-6" class="cls-5" d="M97.28,241.27h42.8v27.2H97.28a2.3,2.3,0,0,1-2.3-2.3h0v-22.6a2.3,2.3,0,0,1,2.3-2.3Z"/></g></g></g></g><g id="Group_7183-6" data-name="Group 7183-6"><g id="Group_5584-6" data-name="Group 5584-6"><path id="Rectangle_1405-6" data-name="Rectangle 1405-6" class="cls-6" d="M179.08,251.07h0a1.4,1.4,0,0,1,1.4,1.4h0a1.4,1.4,0,0,1-1.4,1.4h0a1.4,1.4,0,0,1-1.4-1.4h0A1.4,1.4,0,0,1,179.08,251.07Z"/><path id="Rectangle_1424-6" data-name="Rectangle 1424-6" class="cls-7" d="M182.48,256.67h0a1.5,1.5,0,0,1,1.4,1.5h0a1.4,1.4,0,0,1-1.4,1.4h0a1.4,1.4,0,0,1-1.4-1.4h0A1.49,1.49,0,0,1,182.48,256.67Z"/><path id="Rectangle_1406-6" data-name="Rectangle 1406-6" class="cls-6" d="M184.68,251.07h0a1.4,1.4,0,0,1,1.4,1.4h0a1.4,1.4,0,0,1-1.4,1.4h0a1.49,1.49,0,0,1-1.4-1.4h0A1.4,1.4,0,0,1,184.68,251.07Z"/><path id="Rectangle_1423-6" data-name="Rectangle 1423-6" class="cls-6" d="M188.18,256.67h0a1.5,1.5,0,0,1,1.4,1.5h0a1.51,1.51,0,0,1-1.4,1.4h0a1.5,1.5,0,0,1-1.5-1.4h0A1.5,1.5,0,0,1,188.18,256.67Z"/><path id="Rectangle_1407-6" data-name="Rectangle 1407-6" class="cls-6" d="M190.38,251.07h0a1.4,1.4,0,0,1,1.4,1.4h0a1.4,1.4,0,0,1-1.4,1.4h0a1.4,1.4,0,0,1-1.4-1.4h0A1.4,1.4,0,0,1,190.38,251.07Z"/><path id="Rectangle_1422-6" data-name="Rectangle 1422-6" class="cls-6" d="M193.78,256.67h0a1.5,1.5,0,0,1,1.4,1.5h0a1.4,1.4,0,0,1-1.4,1.4h0a1.4,1.4,0,0,1-1.4-1.4h0A1.49,1.49,0,0,1,193.78,256.67Z"/><path id="Rectangle_1408-6" data-name="Rectangle 1408-6" class="cls-6" d="M196,251.07h0a1.4,1.4,0,0,1,1.4,1.4h0a1.4,1.4,0,0,1-1.4,1.4h0a1.49,1.49,0,0,1-1.4-1.4h0A1.4,1.4,0,0,1,196,251.07Z"/><path id="Rectangle_1421-6" data-name="Rectangle 1421-6" class="cls-7" d="M199.48,256.67h0a1.5,1.5,0,0,1,1.4,1.5h0a1.4,1.4,0,0,1-1.4,1.4h0a1.59,1.59,0,0,1-1.5-1.4h0A1.6,1.6,0,0,1,199.48,256.67Z"/><path id="Rectangle_1409-6" data-name="Rectangle 1409-6" class="cls-6" d="M201.68,251.07h0a1.4,1.4,0,0,1,1.4,1.4h0a1.4,1.4,0,0,1-1.4,1.4h0a1.4,1.4,0,0,1-1.4-1.4h0A1.4,1.4,0,0,1,201.68,251.07Z"/><path id="Rectangle_1420-6" data-name="Rectangle 1420-6" class="cls-6" d="M205.08,256.67h0a1.5,1.5,0,0,1,1.4,1.5h0a1.4,1.4,0,0,1-1.4,1.4h0a1.4,1.4,0,0,1-1.4-1.4h0A1.49,1.49,0,0,1,205.08,256.67Z"/></g></g><g id="Ellipse_1402-6" data-name="Ellipse 1402-6"><circle cx="214.98" cy="255.07" r="2.4"/><circle class="cls-8" cx="214.98" cy="255.07" r="1.9"/></g><path id="Rectangle_3126-6" data-name="Rectangle 3126-6" class="cls-6" d="M172.48,250h0a1.21,1.21,0,0,1,1.1,1.1v8a1.21,1.21,0,0,1-1.1,1h0a.89.89,0,0,1-1-.79.74.74,0,0,1,0-.21v-8a1,1,0,0,1,.89-1.1Z"/><path id="Rectangle_3127-6" data-name="Rectangle 3127-6" class="cls-6" d="M168.28,250h0a1.11,1.11,0,0,1,1,1.1v8a1.11,1.11,0,0,1-1,1h0a1,1,0,0,1-1.1-.9v-.1h0v-8a1.09,1.09,0,0,1,1-1.1Z"/><rect id="Rectangle_3128-6" data-name="Rectangle 3128-6" class="cls-5" x="146.88" y="249.97" width="17.1" height="4.28"/><rect id="Rectangle_3129-6" data-name="Rectangle 3129-6" class="cls-5" x="146.88" y="255.87" width="17.1" height="4.28"/><path id="Rectangle_3130-6" data-name="Rectangle 3130-6" class="cls-9" d="M171.48,252.07h2.1v7a1,1,0,0,1-.9,1.09h-.1a1.1,1.1,0,0,1-1.1-1h0v-7.1Z"/><path id="Rectangle_3131-6" data-name="Rectangle 3131-6" class="cls-7" d="M167.18,256.17h2.1v2.9a1.21,1.21,0,0,1-1.1,1.1h0a1.09,1.09,0,0,1-1-1.1h0Z"/><rect id="Rectangle_3132-6" data-name="Rectangle 3132-6" class="cls-10" x="146.88" y="249.97" width="4.3" height="4.28"/><rect id="Rectangle_3133-6" data-name="Rectangle 3133-6" class="cls-10" x="146.88" y="255.87" width="4.3" height="4.28"/><rect id="Rectangle_3136-6" data-name="Rectangle 3136-6" class="cls-11" x="153.28" y="251.57" width="8.6" height="1.07"/><rect id="Rectangle_3137-6" data-name="Rectangle 3137-6" class="cls-11" x="153.28" y="257.47" width="8.6" height="1.07"/><g id="Ellipse_1403-6" data-name="Ellipse 1403-6"><circle class="cls-15" cx="214.98" cy="255.07" r="4.5"/></g><g id="Group_7375" data-name="Group 7375"><g id="Group_7359-6" data-name="Group 7359-6"><path id="Rectangle_3070-6" data-name="Rectangle 3070-6" class="cls-11" d="M127.88,259.17h0a1.81,1.81,0,0,1,1.8,1.8h0a1.81,1.81,0,0,1-1.8,1.8h0a1.7,1.7,0,0,1-1.8-1.6v-.1h0v-.2a1.79,1.79,0,0,1,1.7-1.8Z"/><path id="Rectangle_3138-6" data-name="Rectangle 3138-6" class="cls-14" d="M128,248.87h0a.8.8,0,0,1,.8.8h0v6.9a.8.8,0,0,1-.8.8h0a.69.69,0,0,1-.8-.58.41.41,0,0,1,0-.22v-6.9a.8.8,0,0,1,.8-.8Z"/></g><g id="Group_7360-6" data-name="Group 7360-6"><path id="Rectangle_1442-11" data-name="Rectangle 1442-11" class="cls-12" d="M122.58,259.17h0a1.8,1.8,0,0,1,1.7,1.8h0a1.8,1.8,0,0,1-1.7,1.8h0a1.7,1.7,0,0,1-1.8-1.6v-.1h0v-.2a1.7,1.7,0,0,1,1.59-1.8h.21Z"/><path id="Rectangle_3139-6" data-name="Rectangle 3139-6" class="cls-13" d="M122.68,252.07h0a.9.9,0,0,1,.8.8v3.7a.8.8,0,0,1-.8.8h0a.9.9,0,0,1-.9-.8v-3.7A.9.9,0,0,1,122.68,252.07Z"/></g><g id="Group_7361-6" data-name="Group 7361-6"><path id="Rectangle_1425-11" data-name="Rectangle 1425-11" class="cls-11" d="M117.18,259.17h0A1.81,1.81,0,0,1,119,261h0a1.81,1.81,0,0,1-1.8,1.8h0a1.8,1.8,0,0,1-1.8-1.7h0v-.2a1.8,1.8,0,0,1,1.8-1.8Z"/><path id="Rectangle_3140-6" data-name="Rectangle 3140-6" class="cls-14" d="M117.28,247.67h0a.7.7,0,0,1,.8.58.81.81,0,0,1,0,.22v8.1a.71.71,0,0,1-.59.8h-.21a.8.8,0,0,1-.8-.8h0v-8.1a.8.8,0,0,1,.8-.8Z"/></g><g id="Group_7362-6" data-name="Group 7362-6"><path id="Rectangle_1442-12" data-name="Rectangle 1442-12" class="cls-9" d="M111.88,259.17h0a1.8,1.8,0,0,1,1.7,1.8h0a1.8,1.8,0,0,1-1.7,1.8h0a1.7,1.7,0,0,1-1.8-1.6v-.1h0v-.2a1.79,1.79,0,0,1,1.7-1.8h.1Z"/><path id="Rectangle_3141-6" data-name="Rectangle 3141-6" class="cls-9" d="M112,249.67h0a.9.9,0,0,1,.8.8v6.1a.8.8,0,0,1-.8.8h0a.69.69,0,0,1-.8-.58.41.41,0,0,1,0-.22v-6.1a.8.8,0,0,1,.8-.8Z"/></g><g id="Group_7363-6" data-name="Group 7363-6"><path id="Rectangle_1425-12" data-name="Rectangle 1425-12" class="cls-7" d="M106.48,259.17h0a1.7,1.7,0,0,1,1.7,1.7h.1a1.81,1.81,0,0,1-1.8,1.8h0a1.7,1.7,0,0,1-1.8-1.6V261h0v-.2a1.79,1.79,0,0,1,1.7-1.8h.1Z"/><path id="Rectangle_3142-6" data-name="Rectangle 3142-6" class="cls-7" d="M106.58,253.07h0a.91.91,0,0,1,.8.9v2.6a.71.71,0,0,1-.59.8h-.21a.8.8,0,0,1-.8-.8h0V254A.89.89,0,0,1,106.58,253.07Z"/></g></g></g><g id="Group_7365-4" data-name="Group 7365-4"><g id="Group_7180-7" data-name="Group 7180-7"><g id="Group_5583-7" data-name="Group 5583-7"><g id="Group_5582-7" data-name="Group 5582-7"><g id="Group_5581-7" data-name="Group 5581-7"><rect id="Rectangle_1565-7" data-name="Rectangle 1565-7" class="cls-3" x="100.68" y="299.27" width="121.9" height="9.46"/><path id="Path_3764-7" data-name="Path 3764-7" class="cls-4" d="M99.38,273.67h124.7c2.4,0,4.4,1.4,4.4,3.2v20.7c0,1.8-2,3.2-4.4,3.2H99.38c-2.4,0-4.4-1.4-4.4-3.2v-20.7C95,275.07,97,273.67,99.38,273.67Z"/><path id="Rectangle_1631-7" data-name="Rectangle 1631-7" class="cls-5" d="M97.28,273.67h42.8v27.2H97.28a2.3,2.3,0,0,1-2.3-2.3v-22.7a2.19,2.19,0,0,1,2.19-2.2Z"/></g></g></g></g><g id="Group_7183-7" data-name="Group 7183-7"><g id="Group_5584-7" data-name="Group 5584-7"><path id="Rectangle_1405-7" data-name="Rectangle 1405-7" class="cls-6" d="M179.08,283.37h0a1.4,1.4,0,0,1,1.4,1.4h0a1.4,1.4,0,0,1-1.4,1.4h0a1.4,1.4,0,0,1-1.4-1.4h0A1.4,1.4,0,0,1,179.08,283.37Z"/><path id="Rectangle_1424-7" data-name="Rectangle 1424-7" class="cls-7" d="M182.48,289.07h0a1.4,1.4,0,0,1,1.4,1.4h0a1.4,1.4,0,0,1-1.4,1.4h0a1.4,1.4,0,0,1-1.4-1.4h0A1.4,1.4,0,0,1,182.48,289.07Z"/><path id="Rectangle_1406-7" data-name="Rectangle 1406-7" class="cls-6" d="M184.68,283.37h0a1.4,1.4,0,0,1,1.4,1.4h0a1.4,1.4,0,0,1-1.4,1.4h0a1.4,1.4,0,0,1-1.4-1.4h0A1.4,1.4,0,0,1,184.68,283.37Z"/><path id="Rectangle_1423-7" data-name="Rectangle 1423-7" class="cls-6" d="M188.18,289.07h0a1.4,1.4,0,0,1,1.4,1.4h0a1.4,1.4,0,0,1-1.4,1.4h0a1.5,1.5,0,0,1-1.5-1.4h0A1.5,1.5,0,0,1,188.18,289.07Z"/><path id="Rectangle_1407-7" data-name="Rectangle 1407-7" class="cls-6" d="M190.38,283.37h0a1.4,1.4,0,0,1,1.4,1.4h0a1.4,1.4,0,0,1-1.4,1.4h0a1.4,1.4,0,0,1-1.4-1.4h0A1.4,1.4,0,0,1,190.38,283.37Z"/><path id="Rectangle_1422-7" data-name="Rectangle 1422-7" class="cls-6" d="M193.78,289.07h0a1.4,1.4,0,0,1,1.4,1.4h0a1.4,1.4,0,0,1-1.4,1.4h0a1.4,1.4,0,0,1-1.4-1.4h0A1.4,1.4,0,0,1,193.78,289.07Z"/><path id="Rectangle_1408-7" data-name="Rectangle 1408-7" class="cls-6" d="M196,283.37h0a1.51,1.51,0,0,1,1.5,1.4h0a1.4,1.4,0,0,1-1.4,1.4h0a1.4,1.4,0,0,1-1.4-1.4h0a1.3,1.3,0,0,1,1.19-1.4Z"/><path id="Rectangle_1421-7" data-name="Rectangle 1421-7" class="cls-7" d="M199.48,289.07h0a1.4,1.4,0,0,1,1.4,1.4h0a1.4,1.4,0,0,1-1.4,1.4h0a1.5,1.5,0,0,1-1.5-1.4h0A1.5,1.5,0,0,1,199.48,289.07Z"/><path id="Rectangle_1409-7" data-name="Rectangle 1409-7" class="cls-6" d="M201.68,283.37h0a1.4,1.4,0,0,1,1.4,1.4h0a1.4,1.4,0,0,1-1.4,1.4h0a1.4,1.4,0,0,1-1.4-1.4h0A1.4,1.4,0,0,1,201.68,283.37Z"/><path id="Rectangle_1420-7" data-name="Rectangle 1420-7" class="cls-6" d="M205.08,289.07h0a1.4,1.4,0,0,1,1.4,1.4h0a1.4,1.4,0,0,1-1.4,1.4h0a1.4,1.4,0,0,1-1.4-1.4h0A1.4,1.4,0,0,1,205.08,289.07Z"/></g></g><g id="Ellipse_1402-7" data-name="Ellipse 1402-7"><circle cx="214.98" cy="287.37" r="2.4"/><circle class="cls-8" cx="214.98" cy="287.37" r="1.9"/></g><path id="Rectangle_3126-7" data-name="Rectangle 3126-7" class="cls-6" d="M172.48,282.27h0a1.3,1.3,0,0,1,1.1,1.1v8a1.1,1.1,0,0,1-1.1,1.1h0a1.09,1.09,0,0,1-1.1-.9h0v-8.1a1.1,1.1,0,0,1,1-1.2Z"/><path id="Rectangle_3127-7" data-name="Rectangle 3127-7" class="cls-6" d="M168.28,282.27h0a1.21,1.21,0,0,1,1,1.1v8a1.11,1.11,0,0,1-1,1.1h0a1,1,0,0,1-1.1-.89h0v-8.1a1.1,1.1,0,0,1,1-1.2Z"/><rect id="Rectangle_3128-7" data-name="Rectangle 3128-7" class="cls-5" x="146.88" y="282.27" width="17.1" height="4.28"/><rect id="Rectangle_3129-7" data-name="Rectangle 3129-7" class="cls-5" x="146.88" y="288.17" width="17.1" height="4.28"/><path id="Rectangle_3130-7" data-name="Rectangle 3130-7" class="cls-9" d="M171.48,284.47h2.1v6.9a1,1,0,0,1-.9,1.09h-.1a1,1,0,0,1-1.1-.9v-.1h0Z"/><path id="Rectangle_3131-7" data-name="Rectangle 3131-7" class="cls-7" d="M167.18,288.47h2.1v2.9a1.11,1.11,0,0,1-1,1.1h-.1a1,1,0,0,1-1-1h0v-3Z"/><rect id="Rectangle_3132-7" data-name="Rectangle 3132-7" class="cls-10" x="146.88" y="282.27" width="4.3" height="4.28"/><rect id="Rectangle_3133-7" data-name="Rectangle 3133-7" class="cls-10" x="146.88" y="288.17" width="4.3" height="4.28"/><rect id="Rectangle_3136-7" data-name="Rectangle 3136-7" class="cls-11" x="153.28" y="283.87" width="8.6" height="1.07"/><rect id="Rectangle_3137-7" data-name="Rectangle 3137-7" class="cls-11" x="153.28" y="289.77" width="8.6" height="1.07"/><g id="Ellipse_1403-7" data-name="Ellipse 1403-7"><circle class="cls-15" cx="214.98" cy="287.37" r="4.5"/></g><g id="Group_7376" data-name="Group 7376"><g id="Group_7359-7" data-name="Group 7359-7"><path id="Rectangle_3070-7" data-name="Rectangle 3070-7" class="cls-11" d="M127.88,291.57h0a1.69,1.69,0,0,1,1.79,1.6.34.34,0,0,1,0,.1h0v.2a1.81,1.81,0,0,1-1.8,1.7h0a1.7,1.7,0,0,1-1.8-1.6v-.1h0v-.2a1.68,1.68,0,0,1,1.69-1.7Z"/><path id="Rectangle_3138-7" data-name="Rectangle 3138-7" class="cls-14" d="M128,281.17h0a.9.9,0,0,1,.8.8v7a.9.9,0,0,1-.8.8h0a.8.8,0,0,1-.8-.8v-7A.8.8,0,0,1,128,281.17Z"/></g><g id="Group_7360-7" data-name="Group 7360-7"><path id="Rectangle_1442-13" data-name="Rectangle 1442-13" class="cls-12" d="M122.58,291.57h0a1.7,1.7,0,0,1,1.7,1.7h0v.2a1.8,1.8,0,0,1-1.7,1.7h0a1.7,1.7,0,0,1-1.8-1.6v-.1h0v-.2a1.6,1.6,0,0,1,1.49-1.7h.31Z"/><path id="Rectangle_3139-7" data-name="Rectangle 3139-7" class="cls-13" d="M122.68,284.37h0a.9.9,0,0,1,.8.8V289a.9.9,0,0,1-.8.8h0a1,1,0,0,1-.9-.8v-3.8A1,1,0,0,1,122.68,284.37Z"/></g><g id="Group_7361-7" data-name="Group 7361-7"><path id="Rectangle_1425-13" data-name="Rectangle 1425-13" class="cls-11" d="M117.18,291.57h0a1.69,1.69,0,0,1,1.79,1.6.34.34,0,0,1,0,.1h0v.2a1.81,1.81,0,0,1-1.8,1.7h0a1.8,1.8,0,0,1-1.8-1.7h0v-.2a1.68,1.68,0,0,1,1.69-1.7Z"/><path id="Rectangle_3140-7" data-name="Rectangle 3140-7" class="cls-14" d="M117.28,280h0a.8.8,0,0,1,.8.8V289a.8.8,0,0,1-.8.8h0a.89.89,0,0,1-.8-.8v-8.2A.8.8,0,0,1,117.28,280Z"/></g><g id="Group_7362-7" data-name="Group 7362-7"><path id="Rectangle_1442-14" data-name="Rectangle 1442-14" class="cls-9" d="M111.88,291.57h0a1.7,1.7,0,0,1,1.7,1.7h0v.2a1.8,1.8,0,0,1-1.7,1.7h0a1.7,1.7,0,0,1-1.8-1.6v-.1h0v-.2a1.7,1.7,0,0,1,1.7-1.7h.1Z"/><path id="Rectangle_3141-7" data-name="Rectangle 3141-7" class="cls-9" d="M112,282h0a.91.91,0,0,1,.8.9V289a.9.9,0,0,1-.8.8h0a.8.8,0,0,1-.8-.8v-6.1a.79.79,0,0,1,.69-.89Z"/></g><g id="Group_7363-7" data-name="Group 7363-7"><path id="Rectangle_1425-14" data-name="Rectangle 1425-14" class="cls-7" d="M106.48,291.57h0a1.6,1.6,0,0,1,1.7,1.49v.21h.1v.2a1.81,1.81,0,0,1-1.8,1.7h0a1.7,1.7,0,0,1-1.8-1.6v-.1h0v-.2a1.7,1.7,0,0,1,1.7-1.7h.1Z"/><path id="Rectangle_3142-7" data-name="Rectangle 3142-7" class="cls-7" d="M106.58,285.47h0a.7.7,0,0,1,.8.58.81.81,0,0,1,0,.22V289a.8.8,0,0,1-.8.8h0a.89.89,0,0,1-.8-.8v-2.7A.8.8,0,0,1,106.58,285.47Z"/></g></g></g><g id="Group_7365-5" data-name="Group 7365-5"><g id="Group_7180-8" data-name="Group 7180-8"><g id="Group_5583-8" data-name="Group 5583-8"><g id="Group_5582-8" data-name="Group 5582-8"><g id="Group_5581-8" data-name="Group 5581-8"><path id="Path_3764-8" data-name="Path 3764-8" class="cls-4" d="M99.38,306h124.7c2.4,0,4.4,1.5,4.4,3.2v20.7c0,1.8-2,3.3-4.4,3.3H99.38c-2.4,0-4.4-1.5-4.4-3.3v-20.7C95,307.47,97,306,99.38,306Z"/><path id="Rectangle_1631-8" data-name="Rectangle 1631-8" class="cls-5" d="M97.28,306h42.8v27.2H97.28a2.3,2.3,0,0,1-2.3-2.3v-22.6A2.3,2.3,0,0,1,97.28,306Z"/></g></g></g></g><g id="Group_7183-8" data-name="Group 7183-8"><g id="Group_5584-8" data-name="Group 5584-8"><path id="Rectangle_1405-8" data-name="Rectangle 1405-8" class="cls-6" d="M179.08,315.77h0a1.4,1.4,0,0,1,1.4,1.4h0a1.4,1.4,0,0,1-1.4,1.4h0a1.4,1.4,0,0,1-1.4-1.4h0A1.4,1.4,0,0,1,179.08,315.77Z"/><path id="Rectangle_1424-8" data-name="Rectangle 1424-8" class="cls-7" d="M182.48,321.37h0a1.4,1.4,0,0,1,1.4,1.4h0a1.4,1.4,0,0,1-1.4,1.4h0a1.4,1.4,0,0,1-1.4-1.4h0A1.4,1.4,0,0,1,182.48,321.37Z"/><path id="Rectangle_1406-8" data-name="Rectangle 1406-8" class="cls-6" d="M184.68,315.77h0a1.4,1.4,0,0,1,1.4,1.4h0a1.4,1.4,0,0,1-1.4,1.4h0a1.4,1.4,0,0,1-1.4-1.4h0A1.4,1.4,0,0,1,184.68,315.77Z"/><path id="Rectangle_1423-8" data-name="Rectangle 1423-8" class="cls-6" d="M188.18,321.37h0a1.51,1.51,0,0,1,1.4,1.4h0a1.4,1.4,0,0,1-1.4,1.4h0a1.4,1.4,0,0,1-1.5-1.3v-.1h0A1.5,1.5,0,0,1,188.18,321.37Z"/><path id="Rectangle_1407-8" data-name="Rectangle 1407-8" class="cls-9" d="M190.38,315.77h0a1.4,1.4,0,0,1,1.4,1.4h0a1.4,1.4,0,0,1-1.4,1.4h0a1.4,1.4,0,0,1-1.4-1.4h0A1.4,1.4,0,0,1,190.38,315.77Z"/><path id="Rectangle_1422-8" data-name="Rectangle 1422-8" class="cls-6" d="M193.78,321.37h0a1.4,1.4,0,0,1,1.4,1.4h0a1.5,1.5,0,0,1-1.4,1.5h0a1.49,1.49,0,0,1-1.4-1.5h0A1.4,1.4,0,0,1,193.78,321.37Z"/><path id="Rectangle_1408-8" data-name="Rectangle 1408-8" class="cls-6" d="M196,315.77h0a1.4,1.4,0,0,1,1.4,1.4h0a1.4,1.4,0,0,1-1.4,1.4h0a1.4,1.4,0,0,1-1.4-1.4h0A1.4,1.4,0,0,1,196,315.77Z"/><path id="Rectangle_1421-8" data-name="Rectangle 1421-8" class="cls-7" d="M199.48,321.37h0a1.4,1.4,0,0,1,1.4,1.4h0a1.4,1.4,0,0,1-1.4,1.4h0a1.5,1.5,0,0,1-1.5-1.4h0A1.5,1.5,0,0,1,199.48,321.37Z"/><path id="Rectangle_1409-8" data-name="Rectangle 1409-8" class="cls-6" d="M201.68,315.77h0a1.4,1.4,0,0,1,1.4,1.4h0a1.4,1.4,0,0,1-1.4,1.4h0a1.4,1.4,0,0,1-1.4-1.4h0A1.4,1.4,0,0,1,201.68,315.77Z"/><path id="Rectangle_1420-8" data-name="Rectangle 1420-8" class="cls-6" d="M205.08,321.37h0a1.4,1.4,0,0,1,1.4,1.4h0a1.5,1.5,0,0,1-1.4,1.5h0a1.49,1.49,0,0,1-1.4-1.5h0A1.4,1.4,0,0,1,205.08,321.37Z"/></g></g><g id="Ellipse_1402-8" data-name="Ellipse 1402-8"><circle cx="214.98" cy="319.77" r="2.4"/><circle class="cls-8" cx="214.98" cy="319.77" r="1.9"/></g><path id="Rectangle_3126-8" data-name="Rectangle 3126-8" class="cls-6" d="M172.48,314.67h0a1.1,1.1,0,0,1,1.1,1.1h0v8a1.11,1.11,0,0,1-1.1,1h0a1.09,1.09,0,0,1-1.1-.9h0v-8a1.09,1.09,0,0,1,1-1.1h.1Z"/><path id="Rectangle_3127-8" data-name="Rectangle 3127-8" class="cls-6" d="M168.28,314.67h0a1.11,1.11,0,0,1,1,1.1v8a1.11,1.11,0,0,1-1,1h0a1,1,0,0,1-1.1-.89h0v-8.1a1,1,0,0,1,.89-1.1h.21Z"/><rect id="Rectangle_3128-8" data-name="Rectangle 3128-8" class="cls-5" x="146.88" y="314.67" width="17.1" height="4.28"/><rect id="Rectangle_3129-8" data-name="Rectangle 3129-8" class="cls-5" x="146.88" y="320.47" width="17.1" height="4.28"/><path id="Rectangle_3130-8" data-name="Rectangle 3130-8" class="cls-9" d="M171.48,316.77h2.1v7a1,1,0,0,1-1,1h-.1a1.09,1.09,0,0,1-1.1-.9h0v-7Z"/><path id="Rectangle_3131-8" data-name="Rectangle 3131-8" class="cls-7" d="M167.18,320.87h2.1v2.9a1.11,1.11,0,0,1-1,1.1h-.1a1,1,0,0,1-1-1h0v-3Z"/><rect id="Rectangle_3132-8" data-name="Rectangle 3132-8" class="cls-10" x="146.88" y="314.67" width="4.3" height="4.28"/><rect id="Rectangle_3133-8" data-name="Rectangle 3133-8" class="cls-10" x="146.88" y="320.47" width="4.3" height="4.28"/><rect id="Rectangle_3136-8" data-name="Rectangle 3136-8" class="cls-11" x="153.28" y="316.27" width="8.6" height="1.07"/><rect id="Rectangle_3137-8" data-name="Rectangle 3137-8" class="cls-11" x="153.28" y="322.17" width="8.6" height="1.07"/><g id="Ellipse_1403-8" data-name="Ellipse 1403-8"><circle class="cls-15" cx="214.98" cy="319.77" r="4.5"/></g><g id="Group_7377" data-name="Group 7377"><g id="Group_7359-8" data-name="Group 7359-8"><path id="Rectangle_3070-8" data-name="Rectangle 3070-8" class="cls-11" d="M127.88,323.37h0a1.81,1.81,0,0,1,1.8,1.7h0v.2a1.81,1.81,0,0,1-1.8,1.8h0a1.8,1.8,0,0,1-1.8-1.7h0v-.3A1.8,1.8,0,0,1,127.88,323.37Z"/><path id="Rectangle_3138-8" data-name="Rectangle 3138-8" class="cls-14" d="M128,313.07h0a.8.8,0,0,1,.8.8v6.9a.9.9,0,0,1-.8.8h0a.8.8,0,0,1-.8-.8h0v-6.9a.8.8,0,0,1,.8-.8Z"/></g><g id="Group_7360-8" data-name="Group 7360-8"><path id="Rectangle_1442-15" data-name="Rectangle 1442-15" class="cls-12" d="M122.58,323.37h0a1.8,1.8,0,0,1,1.7,1.7h0v.2a1.8,1.8,0,0,1-1.7,1.8h0a1.7,1.7,0,0,1-1.8-1.6v-.1h0v-.3a1.7,1.7,0,0,1,1.7-1.7h.1Z"/><path id="Rectangle_3139-8" data-name="Rectangle 3139-8" class="cls-13" d="M122.68,316.27h0a.9.9,0,0,1,.8.8v3.7a.9.9,0,0,1-.8.8h0a1,1,0,0,1-.9-.8v-3.7a.8.8,0,0,1,.79-.81Z"/></g><g id="Group_7361-8" data-name="Group 7361-8"><path id="Rectangle_1425-15" data-name="Rectangle 1425-15" class="cls-11" d="M117.18,323.37h0a1.81,1.81,0,0,1,1.8,1.7h0v.2a1.81,1.81,0,0,1-1.8,1.8h0a1.89,1.89,0,0,1-1.8-1.7h0v-.3A1.8,1.8,0,0,1,117.18,323.37Z"/><path id="Rectangle_3140-8" data-name="Rectangle 3140-8" class="cls-14" d="M117.28,311.87h0a.7.7,0,0,1,.8.58.81.81,0,0,1,0,.22v8.1a.8.8,0,0,1-.8.8h0a.89.89,0,0,1-.8-.8v-8.2A.8.8,0,0,1,117.28,311.87Z"/></g><g id="Group_7362-8" data-name="Group 7362-8"><path id="Rectangle_1442-16" data-name="Rectangle 1442-16" class="cls-9" d="M111.88,323.37h0a1.8,1.8,0,0,1,1.7,1.7h0v.2a1.8,1.8,0,0,1-1.7,1.8h0a1.7,1.7,0,0,1-1.8-1.6v-.1h0v-.3a1.8,1.8,0,0,1,1.7-1.7Z"/><path id="Rectangle_3141-8" data-name="Rectangle 3141-8" class="cls-9" d="M112,313.87h0a.9.9,0,0,1,.8.8v6.1a.9.9,0,0,1-.8.8h0a.8.8,0,0,1-.8-.8v-6.1A.8.8,0,0,1,112,313.87Z"/></g><g id="Group_7363-8" data-name="Group 7363-8"><path id="Rectangle_1425-16" data-name="Rectangle 1425-16" class="cls-7" d="M106.48,323.37h0a1.7,1.7,0,0,1,1.7,1.7h.1v.2a1.81,1.81,0,0,1-1.8,1.8h0a1.8,1.8,0,0,1-1.8-1.7h0v-.3a1.8,1.8,0,0,1,1.7-1.7Z"/><path id="Rectangle_3142-8" data-name="Rectangle 3142-8" class="cls-7" d="M106.58,317.27h0a.91.91,0,0,1,.8.9v2.6a.8.8,0,0,1-.8.8h0a.89.89,0,0,1-.8-.8v-2.6A.89.89,0,0,1,106.58,317.27Z"/></g></g></g></g></g><path class="cls-16" d="M305.38,169.37s13.7-16.5,40-6,52,53.8,28.1,106.2"/><path class="cls-17" d="M308.08,180.87c-1.2,3.1-13.2-1.5-12-4.6l1.7-4.3a6.5,6.5,0,0,1,8.3-3.7h0a6.51,6.51,0,0,1,3.7,8.3h-.1Z"/><path class="cls-18" d="M296.08,176.27c-1.3,3,10.8,7.7,12,4.6S297.08,174.07,296.08,176.27Z"/><path class="cls-19" d="M300.88,178.57a1.2,1.2,0,0,1-1.3.4c-.6-.2-1-.7-.8-1.1a.9.9,0,0,1,1.2-.3C300.48,177.77,301,178.17,300.88,178.57Z"/><path class="cls-19" d="M305.08,180.17c-.1.4-.7.5-1.3.3s-.9-.7-.8-1,.7-.5,1.3-.3S305.18,179.77,305.08,180.17Z"/><path class="cls-20" d="M371.58,331.07a17.62,17.62,0,0,1-8.6-6.2c-3.3-4.7-1.5-16,4.3-19.2s10.3-7,9.4-15.8,2-15.7,9.5-16.6,10.3-1,17.7-7.7,13.5-7.8,16.4-4,.7,8.9-.9,13.4,4,9.1,5.2,13.7.2,10.4-5.6,13.6-9.9,5.9-9.2,11.8-2.7,14.8-15.3,17Z"/><path class="cls-21" d="M410.88,271.07s-27.4,21.5-32.2,60"/><path class="cls-22" d="M336.21,242.49c-5.07,3.19-4.72,8.74-4.6,15.7S330,267.86,326,272.47s-1.89,11.8,5.07,15.1,13.1,8,9.44,16.29-2.36,23.36,15.82,28.32h23.6s16.52-9.56,18.64-27.14-12-19-15.93-24.9-2.83-13.81-2.71-21.95-6-12.16-14.28-11.69-11.45,0-15.7-2.83S340.46,239.78,336.21,242.49Z"/><path class="cls-21" d="M348.63,249.68c0,.23,16.48,19.59,15.66,79.18"/><path class="cls-23" d="M408.78,334H-3.62a1.6,1.6,0,0,1-1.6-1.5h0a1.6,1.6,0,0,1,1.6-1.5h412.4a1.61,1.61,0,0,1,1.6,1.5h0A1.61,1.61,0,0,1,408.78,334Z"/><path class="cls-24" d="M351.88,373.27h-255a31.59,31.59,0,0,1-31.7-31.5V334h318.4v7.7a31.6,31.6,0,0,1-31.6,31.6Z"/><path class="cls-25" d="M201.78,317.47c3.4,2.7,13,13.6,49.8,13.6,10.2,0,21.3.4,30.3-2,23.2-6.3,38.4-14.8,38.4-14.8L275.38,299l-40.3.2Z"/><polygon class="cls-26" points="232.78 311.07 215.18 314.37 215.78 323.97 235.48 323.47 232.78 311.07"/><path class="cls-25" d="M232.78,311.07s42.6-12.1,55.8-15.5c15.2-3.8,38.2-14.3,46-4.6s-1.7,22.6-22.7,28.3-78.4,5.1-78.4,5.1Z"/><path class="cls-27" d="M198.58,308.47a22.55,22.55,0,0,0-.5,6.9c.1,4.7,2.4,8.2,2.7,15a22.56,22.56,0,0,0,2.5-11.4A14.15,14.15,0,0,0,198.58,308.47Z"/><path class="cls-17" d="M224.08,324.17c-2.7.3-7.3,2.4-10.1,3.9s-4.4,3.1-9.4,3c0,0,0-13.3-.6-17.4s-1.3-4.8-1.3-4.8,4.6.3,7,1.5,2.5,1.8,6.6,2,5.8.4,7.6.3A11.52,11.52,0,0,1,224.08,324.17Z"/><path class="cls-28" d="M212.18,325.77s1.6-6.9-.7-11.6"/><path class="cls-28" d="M215.08,324.87a16.28,16.28,0,0,0-.7-10.2"/><path class="cls-28" d="M218.38,323.57s1.3-3.5-.5-8.7"/><path class="cls-29" d="M204.58,331.07c-1.6,0-3.6,0-3.8-.7s1.6-4.6.8-12.5c-.4-4.2-3.3-9.2-3-9.4s2.7-1,4,.4S210.48,318.87,204.58,331.07Z"/><path class="cls-26" d="M310.18,223c5.5-3.9,17.5-13,23.8-32.6a43.21,43.21,0,0,0,2.1-13.3c-3.3-2.8-2.9-7.9-5.9-11.1s-7.9-10.3.3-10.3c4.5,0,8.7.2,10.9,2.4a35.35,35.35,0,0,1,5.7,8.5c1.4,4-.2,9-.4,15.1s-4.1,44-33.4,59.9Z"/><path class="cls-26" d="M246.78,208.67q-.21,3.41-.6,6.9c-.4,2,0,3-6.1,4.1,0,0,2.5,8,13.1,9.4s14.9-7,14.6-7a20.11,20.11,0,0,1-4.2-1.9c-1-.6-.3-12.3-.3-12.3Z"/><path class="cls-30" d="M263.18,210.87s-1.3,4.2-7.8,4.6-8.8-3.7-8.8-3.7l.2-3.1,16.5-.7Z"/><path class="cls-26" d="M236.58,191.07s-3.3-.5-4.7,1.9.3,7,3.8,7.8,4.4-1.1,4.4-1.1Z"/><path class="cls-30" d="M233.68,193.47a3.19,3.19,0,0,1,2.7,0c.3.2-.1.6-.3.6s-3.1-.2-3.6,1.5c0,.1-.1,0-.1-.1A2.78,2.78,0,0,1,233.68,193.47Z"/><path class="cls-30" d="M234.38,193.57c.1-.1.5.2.5.3a2.55,2.55,0,0,0-.7.8,2.94,2.94,0,0,0,2.5,3.9s.1.1,0,.1a2.8,2.8,0,0,1-3-1.6C233.28,196.07,233.08,194.37,234.38,193.57Z"/><path class="cls-26" d="M268.78,184.87s2.9-1.7,5.2,0,2.2,6.7-.7,8.7-4.5.6-4.5.6Z"/><path class="cls-30" d="M272.38,186.07a3,3,0,0,0-2.5,1c-.2.3.3.6.5.4s2.8-1.3,3.9.1.1,0,0-.1A2.2,2.2,0,0,0,272.38,186.07Z"/><path class="cls-30" d="M271.78,186.37c-.1,0-.4.4-.3.5a2.17,2.17,0,0,1,.9.5,3.69,3.69,0,0,1,.7,1.4,3,3,0,0,1-1.5,3.1h0c1.2,0,2.1-1.5,2.1-2.6S273.28,186.67,271.78,186.37Z"/><path class="cls-26" d="M256.88,168.77a16.72,16.72,0,0,0-8-.7,15.53,15.53,0,0,0-7.3,3.5,17.7,17.7,0,0,0-5.6,16.9h0a42.43,42.43,0,0,0,1.4,5.2l.7,2.4a38,38,0,0,0,4.1,8.7,14.29,14.29,0,0,0,19.56,5.12l0,0a14.2,14.2,0,0,0,6.9-10.2,39.6,39.6,0,0,0,.6-9.6l-.2-2.5a47.15,47.15,0,0,0-.7-5.3h0A17.79,17.79,0,0,0,256.88,168.77Z"/><path class="cls-31" d="M259.28,187.17a1.72,1.72,0,0,1,3.36-.77,1,1,0,0,1,0,.17,1.9,1.9,0,0,1-1.4,2h0a1.69,1.69,0,0,1-2-1.35Z"/><path class="cls-31" d="M259.68,181l8.1,1.5a5.93,5.93,0,0,0-3.5-3.4,4.27,4.27,0,0,0-3.5,0A2.09,2.09,0,0,0,259.68,181Z"/><path class="cls-31" d="M245.78,183.47l-6,5.7a5.58,5.58,0,0,1,1-4.7,4.4,4.4,0,0,1,3-2A2,2,0,0,1,245.78,183.47Z"/><path class="cls-31" d="M248.48,189.47a1.74,1.74,0,0,0-3.41.65v0a1.69,1.69,0,0,0,2,1.3h0a1.6,1.6,0,0,0,1.44-1.74A2,2,0,0,0,248.48,189.47Z"/><path class="cls-30" d="M254.38,187.87c-.7.2-1.3,8.2-.2,9.3a2.39,2.39,0,0,0,3.39,0,1.14,1.14,0,0,0,.11-.11,1.84,1.84,0,0,0,.5-.7C258.68,195,255.18,187.77,254.38,187.87Z"/><path class="cls-32" d="M227.48,173.47s6.1-1.2,8.5,2"/><path class="cls-32" d="M227.28,167.37s7.7,1.3,8.8,8.6"/><path class="cls-31" d="M238.58,175.37s4.3,6.5,11.4,8.4,11-6.3,10.3-10c0,0,7,11.2,8.5,11.1a23.73,23.73,0,0,0,1.2-9.5,12.31,12.31,0,0,0-5.5-9.3,5,5,0,0,0-5.8-.1,12.31,12.31,0,0,0-12.6-6.7c-8.3.9-11.6,6.7-10.4,15.5,0,0-3.1-.9-5,2.7s.2,10.7,2.7,14.1a12.68,12.68,0,0,1,3.3-.5s-1.5-5.8-.1-10.9S238.58,175.37,238.58,175.37Z"/><path class="cls-33" d="M242.68,219.07c.8,3,5,7.8,11.2,8.1s11.4-3.8,12.2-5.7c5.2.5,11.8,1.9,14,2.3s6.2,3.4,5,12.2-7.8,62.6-7.8,62.6-18,7-42.2.6l-16-63.8c-1.4-5-2.9-10.4,1.7-12S242.68,219.07,242.68,219.07Z"/><path class="cls-17" d="M262.78,281.57l1,.2c3.4.3,1.8-3.6.7-5s-13-11.2-13-11.2l-8.8.8-10,4.1-4.1,3.1c.9,3.3,1.7,6.6,2.4,9.5,3.7-2.3,12.7-7.8,14.7-8a6,6,0,0,1,3.5.8l5,1.9,2.2.9c1.3.6,2.5,1.5,3.8,2.1A11.19,11.19,0,0,0,262.78,281.57Z"/><line class="cls-34" x1="300.98" y1="263.07" x2="307.38" y2="266.17"/><line class="cls-34" x1="298.18" y1="268.37" x2="304.68" y2="271.47"/><path class="cls-16" d="M208.28,291c8.5,1.2,23.5,1.6,36.7-10.5,10.7-9.6,20.5-28.1,45.3-20"/><path class="cls-17" d="M302,259.57c2.9,1.6-3.1,12.9-6,11.3l-4.1-2.1a6.39,6.39,0,0,1-2.7-8.6h0a6.39,6.39,0,0,1,8.66-2.62l0,0Z"/><path class="cls-26" d="M214.28,232.27s-20.1,36.2-23.8,42.4-2.9,13-2.1,14.7,11.2,2.9,20.7-.8,34.2-16.1,36-17.1a43,43,0,0,0,4.7,2.7c3.3,1.5,5.9,1.6,8.1,3.2s4.4,4.7,8.5,2.7c2.5-1.2-3-8.8-5.4-13-2.4-2-10.8-5.6-15.1-5-6,.9-36.2,11.2-36.2,11.2l11-18.9Z"/><path class="cls-33" d="M221.88,223.07c-5,1.5-6.9,4-11.7,12.7s-11.2,19.4-11.2,19.4a27.27,27.27,0,0,0,16.6,10.4l7.8-13.1Z"/><path class="cls-33" d="M280.08,223.77c5.9,1,20.9,5.4,30.1-.8a36.12,36.12,0,0,1,5,20.8s-12.4,11.1-31.9,6.7Z"/><polygon class="cls-26" points="281.88 313.77 299.08 318.47 297.68 327.97 278.08 325.97 281.88 313.77"/><path class="cls-35" d="M281.88,313.77s-39.7-13.7-54.4-19.1-36.2-16.1-44.8-7.1-1.4,22.5,19.1,29.9,78.3,9.5,78.3,9.5A25.93,25.93,0,0,0,281.88,313.77Z"/><path class="cls-27" d="M316.08,314a26.56,26.56,0,0,1,0,6.9c-.5,4.6-3.1,8-3.9,14.7a21.5,21.5,0,0,1-1.6-11.5A13.88,13.88,0,0,1,316.08,314Z"/><path class="cls-17" d="M289.38,327.57c2.7.5,7.2,3,9.8,4.7s4.1,3.4,9.1,3.8c0,0,1.1-13.3,2-17.4s1.8-4.7,1.8-4.7-4.7,0-7.1,1-2.7,1.6-6.8,1.5-5.8-.1-7.6-.3A11.4,11.4,0,0,0,289.38,327.57Z"/><path class="cls-28" d="M301.18,330.07s-1-7,1.6-11.6"/><path class="cls-28" d="M298.38,329.07a16.28,16.28,0,0,1,1.5-10.2"/><path class="cls-28" d="M295.18,327.47s-1.1-3.6,1.2-8.6"/><path class="cls-29" d="M308.28,336.07c1.6.1,3.6.2,3.9-.5s-1.2-4.7.1-12.5c.8-4.2,4.1-8.9,3.8-9.1s-2.7-1.2-4,0S303.38,323.37,308.28,336.07Z"/><path class="cls-36" d="M281.78,320.87h-.9s-25.8-1.7-53.5-6.2-45.6-13.7-48-20.4c-1.2,8.1,6.6,17.5,22.5,23.2,20.4,7.3,78.2,9.5,78.2,9.5A25.25,25.25,0,0,0,281.78,320.87Z"/><g class="cls-37"><path class="cls-16" d="M276.68,311.47c0,3.5-.7,11.6-2.3,16.5"/></g><path class="cls-17" d="M223.38,252.47s3.1-8.2,1-20.2c0,0,3.8,14.7-.4,22.8Z"/><path class="cls-17" d="M283.28,250.47a60.75,60.75,0,0,0-.9-18s2.5,5,2.4,18.2Z"/><line class="cls-1" x1="146.38" y1="330.77" x2="148.98" y2="330.87"/><path class="cls-18" d="M276.18,107.07l-6.9,29.8-10.6-1.6,3.5-30.3Zm-7.8,38.7a6.5,6.5,0,0,1-.8,2.3,6.71,6.71,0,0,1-3.7,2.7,6,6,0,0,1-6.4-2.3,5,5,0,0,1-1-2.1,6.26,6.26,0,0,1-.1-2.4,6.13,6.13,0,0,1,.8-2.3,6.31,6.31,0,0,1,3.7-2.7,4.89,4.89,0,0,1,2.4-.2,6.69,6.69,0,0,1,2.3.9,6.47,6.47,0,0,1,1.7,1.6,6.88,6.88,0,0,1,1,2.1A6.68,6.68,0,0,1,268.38,145.77Z"/><path class="cls-18" d="M293.78,148.17l-7.1-6.7a15.39,15.39,0,0,1,3.7-3.5,12,12,0,0,1,3.5-1.5,10.39,10.39,0,0,1,3.1-.2l2.6.5,2.3.5a3.2,3.2,0,0,0,1.9-.3l.9-.8a3.22,3.22,0,0,0,0-3.1,6.59,6.59,0,0,0-1.6-2.1l-1.9-1.6-2.6-1.6-2.9-1.4a16.49,16.49,0,0,0-2.9-.9l6.8-9.2,2.7.7,3,1.1a23,23,0,0,1,6.4,4.4,22.47,22.47,0,0,1,4.3,5.3,17.4,17.4,0,0,1,2,5.9,13.53,13.53,0,0,1-.4,6,15.91,15.91,0,0,1-3.4,5.7,10.42,10.42,0,0,1-3.6,2.6,7.57,7.57,0,0,1-3.3.7,11.25,11.25,0,0,1-3.2-.6l-3.3-.8a9.2,9.2,0,0,0-3.3-.3A8.05,8.05,0,0,0,293.78,148.17Zm-4.1,6.6a6.75,6.75,0,0,1-2,1.4,6.29,6.29,0,0,1-2.3.5,5.81,5.81,0,0,1-2.3-.4,5.06,5.06,0,0,1-2-1.2,5.58,5.58,0,0,1-1.4-2,5.91,5.91,0,0,1-.5-2.3,4.52,4.52,0,0,1,.3-2.3,6.27,6.27,0,0,1,1.3-2,5.77,5.77,0,0,1,4.3-2,6.45,6.45,0,0,1,2.3.3,6.27,6.27,0,0,1,2,1.3,4.79,4.79,0,0,1,1.4,2,5.91,5.91,0,0,1,.5,2.3,6.4,6.4,0,0,1-.4,2.3,5.51,5.51,0,0,1-1.2,2.1Z"/></g></svg>